<?xml version="1.0" standalone="no"?>
<!DOCTYPE svg PUBLIC "-//W3C//DTD SVG 20010904//EN"
 "http://www.w3.org/TR/2001/REC-SVG-20010904/DTD/svg10.dtd">
<svg version="1.0" xmlns="http://www.w3.org/2000/svg"
 width="920.000000pt" height="1599.000000pt" viewBox="0 0 920.000000 1599.000000"
 preserveAspectRatio="xMidYMid meet">
<metadata>
Created by potrace 1.16, written by Peter Selinger 2001-2019
</metadata>
<g transform="translate(0.000000,1599.000000) scale(0.100000,-0.100000)"
fill="#000000" stroke="none">
<path d="M3710 15790 c-69 -10 -234 -49 -371 -89 -112 -33 -276 -112 -404
-196 -44 -29 -93 -60 -110 -68 -38 -21 -176 -151 -151 -143 16 6 17 4 6 -9 -7
-8 -19 -15 -26 -15 -16 0 -91 -79 -118 -124 -11 -19 5 -6 43 34 59 62 61 63
42 25 -11 -22 -33 -55 -50 -73 -17 -19 -38 -46 -45 -60 -8 -15 -24 -34 -35
-42 -12 -8 -21 -20 -21 -26 0 -6 -7 -17 -15 -24 -25 -21 -17 5 18 56 43 63 49
74 43 74 -6 0 -61 -82 -82 -122 -9 -16 -11 -27 -5 -24 14 9 14 12 -8 -58 -13
-42 -20 -53 -25 -41 -11 29 -16 11 -7 -23 7 -24 6 -32 -3 -32 -9 0 -12 -22
-12 -79 1 -59 -3 -84 -15 -98 -53 -60 -222 -343 -205 -343 2 0 19 25 37 55 55
90 58 94 59 67 0 -14 4 -21 11 -16 7 4 7 -1 -1 -16 -9 -17 -14 -19 -20 -10 -6
9 -15 -1 -31 -34 -12 -27 -22 -54 -22 -61 0 -7 -7 -11 -15 -7 -10 3 -13 0 -10
-9 3 -8 1 -22 -4 -31 -6 -14 -5 -18 7 -18 21 0 12 -33 -24 -80 -41 -55 -52
-80 -46 -101 4 -10 2 -19 -4 -19 -6 0 -18 -15 -27 -32 l-16 -33 26 30 c24 28
25 29 26 8 0 -12 -4 -25 -10 -28 -5 -3 -15 -15 -21 -26 -9 -18 -8 -19 8 -11
26 14 50 43 62 75 6 16 15 26 20 23 5 -3 23 9 41 27 28 27 30 28 19 7 -8 -14
-20 -33 -28 -42 -16 -20 -9 -23 20 -8 10 6 19 19 19 29 0 10 9 38 19 62 11 24
18 45 16 47 -2 2 -17 -5 -33 -17 -17 -12 -34 -21 -39 -21 -5 0 -26 -16 -46
-37 -20 -20 -39 -34 -42 -31 -10 10 58 71 100 90 64 29 74 41 104 124 44 120
106 254 177 382 58 104 277 352 311 352 7 0 13 6 13 14 0 8 8 13 18 12 11 -1
16 5 14 17 -3 16 0 17 19 7 17 -10 20 -9 14 1 -6 9 -2 11 13 7 17 -5 22 -2 22
14 0 21 0 21 21 2 20 -18 20 -18 14 9 -6 21 -3 28 11 34 10 4 19 2 22 -5 7
-22 22 -1 23 31 1 31 1 31 9 7 4 -14 9 -20 9 -15 1 6 8 1 16 -9 8 -11 15 -15
15 -9 0 12 60 46 68 38 9 -9 -8 -36 -19 -29 -8 4 -8 0 0 -15 7 -12 9 -27 5
-34 -5 -8 -2 -7 9 2 9 7 17 23 17 34 0 19 1 19 20 -3 l20 -23 1 34 c1 24 3 27
6 11 2 -12 8 -20 13 -17 4 3 6 15 3 28 -4 18 -3 19 6 7 6 -8 11 -11 11 -6 0 5
6 4 13 -2 10 -9 16 -4 26 23 18 50 35 45 29 -8 l-5 -43 39 40 c32 33 36 35 20
11 -22 -32 -37 -75 -27 -75 3 0 17 12 31 28 15 16 24 21 23 12 -3 -29 1 -46
16 -66 14 -18 14 -18 15 9 0 18 -4 26 -11 21 -7 -4 -10 -1 -7 7 3 8 12 13 20
13 11 -1 14 5 10 19 -4 14 -2 18 7 13 8 -5 10 -19 6 -37 -7 -33 1 -69 17 -69
5 0 7 7 4 16 -8 22 4 85 15 79 4 -3 3 -16 -2 -29 -9 -18 -7 -32 6 -60 10 -20
19 -35 21 -33 3 2 -2 16 -10 31 -12 24 -12 29 8 51 18 21 22 22 25 7 2 -9 8
-20 15 -24 8 -6 8 -12 -1 -27 -10 -16 -9 -18 8 -14 10 3 19 13 19 22 0 9 7 25
15 35 14 18 15 18 15 2 0 -9 5 -14 10 -11 6 3 10 -1 10 -10 0 -10 -5 -13 -12
-9 -7 4 -8 3 -4 -4 4 -7 4 -18 -1 -24 -4 -7 -9 -22 -11 -33 -2 -19 -2 -19 11
-1 11 15 16 16 22 6 6 -10 12 -4 21 21 l12 34 2 -35 c1 -19 4 -29 7 -22 7 19
23 14 23 -8 0 -14 5 -18 17 -13 14 5 15 1 9 -27 -8 -43 4 -32 14 12 l8 33 2
-40 c1 -31 3 -36 9 -20 5 11 6 24 4 28 -3 4 7 6 21 3 24 -4 26 -2 27 32 l1 37
9 -31 c12 -41 39 -93 39 -75 0 11 3 11 15 1 12 -10 15 -9 15 6 0 17 1 17 14
-2 11 -14 11 -21 3 -27 -7 -5 1 -6 17 -2 17 3 36 14 43 23 8 11 12 13 13 4 0
-9 7 -8 26 5 27 17 27 17 16 -4 -9 -17 -9 -22 4 -27 8 -3 17 0 20 7 7 19 42
18 47 -1 4 -15 5 -15 6 -1 1 22 41 47 66 42 11 -2 27 -4 36 -5 11 -1 15 -8 11
-18 -4 -12 -2 -12 15 3 23 20 34 22 30 5 -4 -23 41 -20 64 3 13 13 24 18 26
12 2 -6 13 -8 25 -6 11 4 24 0 29 -8 7 -12 9 -12 9 1 1 12 3 11 11 -3 7 -13
15 -15 28 -8 12 7 27 5 47 -5 21 -11 34 -13 51 -5 22 10 29 4 24 -22 -1 -5 3
-6 7 -3 5 3 17 -16 27 -42 10 -26 24 -54 31 -63 8 -8 14 -21 14 -27 0 -7 5
-12 10 -12 6 0 19 -9 30 -20 11 -11 17 -20 14 -20 -4 0 -2 -6 4 -12 7 -10 3
-18 -14 -31 -23 -17 -24 -17 -30 7 -8 32 -29 52 -39 36 -4 -6 -1 -18 7 -27 11
-14 11 -16 -2 -9 -8 4 -6 0 5 -9 11 -9 19 -21 17 -26 -1 -5 11 -3 27 6 38 19
51 19 25 0 -18 -14 -17 -14 16 -15 28 0 32 -3 20 -11 -12 -9 -12 -10 4 -5 21
7 46 -9 46 -31 0 -10 -6 -12 -22 -7 -20 6 -21 5 -6 -10 20 -19 34 -21 41 -3 3
7 6 5 6 -5 1 -11 -6 -18 -16 -19 -15 0 -14 -2 3 -9 12 -4 24 -15 27 -23 4 -10
14 -14 29 -10 18 4 20 3 8 -6 -8 -6 -10 -11 -5 -12 6 -1 15 -2 20 -4 6 -1 15
-3 21 -3 7 -1 14 -11 17 -23 4 -14 -1 -23 -16 -29 -12 -5 -16 -9 -9 -9 6 -1
12 -6 12 -12 0 -5 -4 -8 -8 -5 -4 2 -14 1 -22 -5 -12 -7 -11 -9 4 -9 20 0 20
0 0 -15 -14 -11 -15 -14 -3 -9 11 3 29 -7 51 -30 19 -20 42 -36 51 -36 9 0 19
-5 23 -12 5 -8 2 -9 -9 -5 -28 10 -21 -40 8 -65 24 -20 37 -66 15 -53 -5 3
-10 1 -10 -4 0 -6 -8 -11 -17 -11 -14 0 -15 2 -5 9 11 6 10 10 -4 15 -11 4
-20 2 -22 -3 -2 -6 -8 -9 -13 -5 -5 3 -9 -2 -9 -10 0 -9 -4 -16 -10 -16 -17 0
-11 18 10 33 11 8 17 17 13 21 -4 4 5 2 20 -3 45 -17 52 -13 23 14 -14 13 -28
23 -30 22 -1 -1 -11 5 -21 13 -17 14 -18 13 -12 -2 3 -10 2 -20 -2 -23 -5 -3
-7 -14 -4 -25 5 -18 -5 -25 -29 -21 -13 2 -9 -17 7 -33 20 -19 19 -46 -1 -46
-8 0 -12 4 -9 10 7 11 -25 70 -38 70 -4 0 -5 5 -1 12 5 7 2 9 -9 5 -11 -4 -14
-2 -11 8 3 8 13 11 22 8 14 -4 15 -3 2 5 -17 13 -44 -4 -36 -23 2 -7 -1 -19
-7 -26 -10 -10 -8 -10 6 0 15 12 20 11 32 -5 7 -10 9 -20 4 -22 -12 -5 -12
-32 1 -32 6 0 10 6 10 13 0 6 7 -1 15 -17 8 -15 13 -32 10 -36 -3 -5 -1 -11 5
-15 5 -3 10 -11 10 -17 0 -7 -4 -7 -14 1 -11 9 -12 6 -8 -14 2 -14 9 -28 15
-32 5 -3 7 -1 4 4 -4 6 0 14 9 17 13 5 15 2 11 -14 -3 -11 -2 -20 3 -20 8 0
23 -61 16 -67 -3 -3 -11 8 -20 24 -15 28 -15 28 -10 -21 4 -38 3 -47 -8 -40
-8 4 -10 3 -5 -2 5 -5 14 -9 20 -9 7 0 13 -9 15 -20 2 -11 13 -30 24 -42 l21
-22 -38 4 c-21 3 -44 10 -52 16 -17 15 -16 10 2 -35 10 -24 20 -34 28 -29 8 4
7 1 -2 -10 -7 -9 -19 -17 -25 -17 -6 0 -5 4 3 9 11 7 9 10 -8 16 -16 5 -26 2
-35 -10 -10 -14 -17 -15 -34 -6 -11 6 -33 12 -49 12 l-28 1 30 9 c30 8 29 8
-5 5 -22 -2 -42 2 -54 13 -11 9 -16 11 -13 5 8 -15 -17 -25 -40 -18 -11 4 -14
2 -8 -3 6 -4 10 -23 11 -40 1 -26 -3 -33 -18 -33 -11 0 -16 -4 -13 -10 3 -5 0
-10 -7 -10 -9 0 -9 -3 2 -10 11 -7 5 -8 -19 -3 -28 5 -33 3 -29 -9 5 -11 0
-14 -19 -10 -15 3 -29 -1 -33 -9 -7 -10 -16 -10 -44 -2 -43 13 -46 9 -8 -12
15 -9 19 -14 10 -11 -26 8 -48 -3 -41 -20 3 -9 0 -12 -8 -9 -8 3 -29 7 -47 9
-31 3 -32 3 -16 -15 19 -21 11 -39 -19 -38 l-22 0 23 9 c12 5 22 12 22 16 0 3
-7 4 -15 0 -10 -4 -15 1 -15 14 0 11 -7 20 -15 20 -8 0 -15 -5 -15 -11 0 -5 5
-7 10 -4 6 3 10 2 10 -4 0 -5 -10 -11 -22 -13 -12 -2 -23 -8 -25 -15 -3 -7 4
-9 18 -6 16 5 20 3 14 -6 -4 -8 -18 -11 -36 -7 -16 3 -29 1 -29 -4 0 -6 -8
-10 -17 -9 -11 0 -13 3 -5 6 6 2 12 9 12 14 0 11 -32 -1 -42 -15 -6 -8 -11 -6
-17 3 -11 16 -51 23 -48 8 1 -5 -13 -16 -30 -23 -20 -8 -33 -10 -33 -4 0 5 5
10 11 10 6 0 9 6 6 13 -2 6 0 20 5 31 8 14 7 17 -4 14 -7 -2 -20 -18 -28 -35
-9 -18 -21 -28 -29 -25 -8 2 -11 0 -8 -5 3 -5 -3 -22 -14 -39 -18 -27 -19 -28
-19 -6 0 12 8 35 17 50 l17 27 -22 -19 c-14 -12 -22 -30 -22 -51 0 -62 -11
-95 -32 -95 -17 0 -18 -3 -8 -15 18 -22 -7 -20 -34 3 -21 17 -21 17 -3 -4 16
-19 16 -23 2 -34 -8 -7 -12 -16 -9 -21 3 -5 -1 -16 -9 -23 -11 -11 -17 -12
-26 -3 -8 8 -11 5 -12 -14 -1 -13 -1 -27 0 -31 0 -5 -7 -8 -17 -8 -27 0 -33
-10 -21 -33 6 -11 7 -22 3 -26 -12 -8 -11 -52 0 -70 6 -10 6 -16 -2 -19 -7 -2
-8 -11 -3 -25 4 -12 7 -48 6 -79 -1 -32 1 -58 4 -58 4 0 7 -8 7 -17 1 -10 5
-27 9 -38 7 -16 4 -15 -14 5 l-22 25 5 -37 c3 -23 1 -38 -6 -38 -5 0 -8 -7 -4
-15 3 -8 0 -15 -7 -15 -9 0 -8 -3 1 -9 11 -7 11 -9 -1 -14 -21 -8 -33 5 -32
35 1 15 -3 24 -8 21 -4 -2 -7 -12 -5 -21 1 -10 -1 -23 -5 -29 -5 -9 -2 -13 10
-14 10 0 13 -3 7 -5 -7 -3 -9 -15 -6 -27 5 -20 4 -20 -11 -8 -15 12 -17 11
-17 -3 0 -12 7 -16 23 -14 13 2 21 -2 19 -10 -1 -6 1 -11 5 -11 20 3 24 -2 14
-15 -10 -11 -9 -21 4 -45 15 -30 11 -37 -17 -32 -5 0 -8 -4 -8 -10 0 -6 6 -9
13 -6 7 3 22 -2 32 -10 19 -15 19 -15 -5 -10 -39 9 -52 -4 -30 -31 10 -12 20
-17 22 -11 2 6 12 0 23 -12 l20 -22 -22 5 c-13 4 -24 1 -27 -8 -3 -8 0 -11 8
-8 7 3 16 -2 19 -10 4 -10 0 -14 -14 -11 -12 2 -19 -2 -19 -11 0 -10 8 -13 24
-10 19 3 23 1 19 -11 -4 -11 -8 -11 -13 -3 -5 8 -10 9 -14 2 -3 -6 3 -14 14
-17 18 -6 19 -9 8 -22 -11 -14 -10 -16 15 -11 26 5 27 5 10 -12 -10 -9 -19
-13 -21 -9 -2 5 -10 9 -18 9 -7 0 -11 -6 -8 -14 3 -8 -3 -20 -15 -27 -16 -11
-18 -16 -8 -28 9 -12 9 -13 0 -7 -8 4 -13 2 -14 -6 -4 -55 -9 -83 -17 -86 -5
-1 -18 -10 -28 -18 -10 -9 -12 -12 -4 -8 12 6 13 4 3 -6 -11 -11 -17 -10 -37
9 -18 17 -26 19 -31 10 -6 -8 -4 -10 5 -4 9 5 11 4 6 -4 -6 -9 -11 -9 -21 -1
-10 9 -16 6 -25 -10 -6 -12 -13 -31 -15 -42 -3 -12 -10 -25 -16 -28 -16 -10
101 -73 133 -72 16 0 28 -4 28 -10 0 -6 16 -8 43 -4 49 8 110 -16 101 -38 -3
-8 -1 -17 5 -21 6 -3 11 -2 11 2 0 5 9 9 20 10 20 2 21 -1 24 -67 1 -17 7 -25
21 -27 l20 -3 -20 9 c-11 5 -14 10 -7 10 9 1 11 8 7 20 -6 21 10 38 20 21 12
-19 26 -11 15 9 -8 16 -7 19 7 17 25 -4 27 -22 3 -39 -17 -12 -18 -15 -5 -20
20 -8 19 -23 -2 -31 -36 -13 -65 -34 -52 -38 9 -3 9 -9 1 -25 -11 -20 -11 -20
21 -4 51 26 58 32 51 42 -3 6 -11 6 -18 2 -7 -4 -4 -1 5 8 9 8 20 30 24 47 9
42 23 41 22 0 0 -65 3 -79 15 -72 8 5 9 0 6 -14 -4 -12 -2 -20 3 -16 5 3 9 0
9 -5 0 -6 -4 -11 -10 -11 -5 0 -10 -4 -10 -10 0 -5 6 -10 14 -10 11 0 14 13
14 54 -1 42 -5 53 -15 49 -12 -5 -13 2 -8 31 6 28 4 37 -9 42 -18 7 -22 34 -5
34 5 0 7 -4 4 -10 -4 -6 4 -9 17 -7 19 2 23 -3 23 -25 -1 -14 3 -24 8 -21 11
7 27 -16 27 -37 0 -12 -2 -12 -9 -2 -5 9 -10 -5 -14 -39 -7 -56 -4 -69 19 -69
17 0 18 22 2 38 -9 9 -9 15 0 24 7 7 12 8 12 4 0 -5 7 -3 15 4 12 10 15 9 16
-6 0 -18 1 -18 8 1 5 11 7 23 5 27 -3 4 0 9 6 13 5 3 10 12 10 18 0 8 -3 8 -9
-2 -13 -20 -24 5 -12 27 6 11 7 22 4 26 -3 3 -1 6 5 6 7 0 12 7 12 15 0 8 5
15 10 15 6 0 4 -13 -5 -30 -19 -37 -19 -46 0 -30 12 10 15 10 15 -1 0 -12 2
-12 9 0 5 8 7 21 3 29 -4 11 -1 14 11 9 9 -3 19 -1 23 5 4 7 3 8 -4 4 -7 -4
-12 -2 -12 4 0 6 -4 9 -9 6 -5 -3 -11 1 -15 9 -6 18 7 27 27 19 19 -7 52 40
41 57 -5 8 -3 9 5 5 7 -5 10 -14 7 -22 -7 -17 3 -44 15 -44 5 0 9 15 9 33 0
22 3 28 9 18 5 -7 14 -12 20 -10 14 5 -11 55 -26 52 -6 -1 -13 7 -16 17 -4 15
1 22 19 26 23 6 31 33 25 81 -1 8 5 10 14 7 19 -8 19 -5 -1 34 -8 18 -13 36
-9 42 3 5 2 10 -2 10 -5 0 -9 9 -10 20 -2 27 -48 92 -59 82 -4 -4 -3 0 4 9 11
14 9 18 -13 23 -14 4 -23 11 -20 16 3 6 1 10 -5 10 -6 0 -8 5 -5 10 3 6 0 10
-8 10 -8 0 -18 7 -21 16 -3 9 -2 12 5 8 6 -3 4 8 -5 24 -20 39 -20 56 0 87 9
13 14 32 11 42 -4 14 -5 13 -6 -5 -1 -15 -5 -21 -13 -16 -6 4 -8 3 -5 -3 4 -7
-2 -10 -16 -9 -14 0 -23 7 -23 18 0 10 5 17 11 17 24 -3 34 2 34 19 1 38 5 51
13 46 4 -3 8 -13 8 -22 1 -15 2 -15 11 2 8 13 8 25 0 43 -14 31 -14 53 0 53 6
0 9 -7 5 -15 -4 -10 1 -14 17 -12 16 1 21 -3 19 -15 -1 -9 3 -20 10 -25 14 -9
68 -11 68 -3 0 3 9 6 20 6 11 0 20 -6 20 -13 0 -7 9 -13 21 -13 11 0 17 4 14
10 -3 6 1 7 9 4 9 -3 14 -10 11 -14 -3 -4 2 -11 11 -14 11 -4 15 -2 11 7 -3 8
3 13 14 14 11 1 17 -2 14 -7 -3 -6 1 -7 9 -4 9 3 13 10 10 15 -3 5 0 9 5 9 6
0 11 5 11 10 0 6 -7 10 -16 10 -8 0 -12 5 -9 11 8 13 -24 51 -36 43 -5 -3 -6
-11 -2 -17 4 -7 -5 -4 -20 6 -21 14 -25 14 -21 2 8 -20 -2 -18 -56 8 -27 13
-46 30 -48 42 -2 11 -8 27 -13 35 -7 11 -8 8 -3 -10 6 -22 5 -23 -9 -11 -9 7
-14 18 -11 23 4 6 -1 6 -13 -1 -18 -9 -20 -7 -15 14 5 27 29 33 51 13 8 -7 11
-8 8 -3 -3 7 10 11 34 12 23 1 37 -2 34 -8 -4 -5 -15 -9 -25 -9 -10 0 -22 -5
-26 -12 -5 -8 -2 -9 12 -4 10 4 32 10 47 13 21 4 25 8 15 14 -8 6 4 9 33 9 32
0 49 5 52 14 5 11 -5 17 -37 21 -24 4 -52 5 -62 2 -11 -3 -2 -5 19 -6 20 0 37
-5 37 -10 0 -6 -42 -9 -95 -9 -65 1 -99 -3 -110 -12 -13 -11 -19 -11 -33 4
-15 15 -15 18 -2 26 8 5 23 10 33 10 9 0 17 4 17 9 0 6 15 12 33 14 17 3 -5 3
-50 2 l-82 -4 11 23 c12 27 -8 79 -22 56 -6 -9 -9 -9 -15 0 -10 17 16 32 32
18 10 -8 13 -6 13 5 0 27 -12 47 -29 48 -12 0 -12 2 4 9 14 6 15 9 5 9 -9 1
-21 -4 -28 -11 -6 -6 -15 -9 -18 -5 -4 3 7 20 24 37 17 16 26 30 20 30 -19 0
12 29 35 32 12 2 21 9 20 15 -2 7 3 10 11 7 7 -3 19 2 26 11 7 8 19 15 26 15
8 0 14 5 14 10 0 6 3 9 8 8 4 -1 17 3 30 10 15 9 22 9 22 2 0 -6 6 -8 13 -4 9
6 9 4 -1 -8 -11 -14 -9 -15 25 -2 21 7 47 13 58 14 36 1 -6 20 -45 20 -35 1
-99 28 -70 30 8 1 24 4 35 7 11 3 45 6 75 6 30 0 43 2 28 4 -51 8 -29 18 39
19 63 0 65 -1 37 -13 -28 -12 -27 -12 19 -7 27 3 58 10 68 17 16 10 21 9 28
-2 6 -9 11 -10 15 -2 10 16 26 14 26 -3 0 -8 6 -17 13 -19 10 -4 10 -6 0 -6
-14 -1 -18 -31 -5 -31 4 0 14 6 21 13 11 10 13 9 8 -5 -4 -11 0 -21 11 -27 30
-17 -11 -25 -86 -16 -120 13 -184 11 -244 -8 -32 -10 -58 -23 -58 -28 0 -5
-15 -9 -32 -9 -24 0 -29 3 -18 10 8 5 11 12 7 16 -10 10 -19 -2 -21 -26 -1
-12 -14 -28 -31 -38 -38 -22 -55 -38 -55 -52 0 -7 -6 -10 -13 -7 -8 3 -14 -1
-14 -9 0 -10 7 -12 19 -8 11 3 33 0 49 -6 33 -14 48 -8 30 14 -9 11 -2 20 36
48 78 54 123 70 123 43 0 -8 4 -15 9 -15 12 0 20 -35 11 -51 -6 -8 -10 -3 -13
17 l-4 29 -2 -28 c-2 -38 15 -67 40 -67 11 0 22 -7 25 -15 4 -10 20 -15 48
-15 30 0 37 -3 26 -10 -8 -6 -28 -7 -44 -4 -29 6 -46 -6 -46 -33 0 -19 27 -16
39 5 9 15 10 15 11 -5 0 -15 7 -23 23 -25 15 -2 21 -9 19 -23 -2 -20 -2 -20
13 -1 8 11 18 17 21 13 3 -3 17 -2 30 3 19 7 24 6 24 -5 0 -9 10 -15 26 -15
21 0 25 -4 21 -20 -3 -11 -1 -18 4 -14 5 3 9 0 9 -6 0 -33 -137 -69 -155 -40
-3 5 -12 7 -20 3 -9 -3 -22 0 -31 7 -11 10 -18 10 -26 2 -7 -7 -23 -12 -36
-12 -22 0 -22 -1 -7 -16 14 -14 23 -15 51 -6 19 5 32 6 28 1 -3 -5 -12 -9 -20
-9 -8 0 -12 -5 -9 -10 4 -6 15 -8 25 -5 10 3 31 3 47 -1 l28 -7 -28 -12 c-25
-10 -20 -12 47 -11 42 0 76 4 76 9 0 12 124 0 128 -13 2 -5 18 -10 36 -10 18
0 37 -5 44 -12 9 -9 12 -9 12 1 0 8 6 11 15 7 8 -3 15 0 15 7 0 21 59 18 81
-4 11 -11 24 -18 27 -14 4 3 0 10 -8 15 -8 6 -10 10 -4 10 6 0 19 -9 29 -20
13 -15 15 -20 4 -20 -8 0 -4 -7 10 -16 15 -11 26 -13 32 -7 10 10 69 -39 69
-58 0 -5 9 -9 21 -9 11 0 18 4 14 9 -10 17 12 21 26 5 10 -12 10 -15 -2 -12
-8 2 -13 -3 -11 -10 1 -6 -1 -11 -5 -11 -21 3 -22 -4 -8 -36 8 -20 10 -33 4
-29 -7 4 -7 -1 1 -15 6 -12 16 -18 22 -15 7 4 8 3 4 -4 -4 -7 0 -22 10 -34 13
-18 15 -19 10 -4 -5 16 -4 17 9 6 8 -7 12 -16 10 -21 -3 -4 8 -15 24 -24 18
-9 28 -21 25 -29 -3 -8 4 -16 18 -20 14 -4 19 -9 12 -13 -18 -12 -26 -50 -13
-59 8 -4 9 -3 5 4 -11 18 15 14 37 -5 11 -10 17 -12 13 -5 -12 20 4 35 22 20
12 -10 14 -10 8 0 -5 8 1 15 16 21 13 6 17 10 11 10 -7 1 -13 9 -13 19 0 14 2
14 9 3 5 -8 16 -11 24 -8 9 3 17 -2 20 -14 3 -13 11 -17 21 -13 18 7 22 24 5
24 -5 0 -8 4 -5 8 2 4 1 14 -4 22 -7 11 -11 11 -24 1 -20 -17 -21 -1 -2 24 12
17 11 21 -10 38 -28 21 -31 37 -8 37 8 0 13 -4 10 -9 -8 -12 13 -9 38 6 19 10
19 11 -1 17 -11 4 -32 2 -47 -3 -25 -10 -56 -6 -56 8 0 3 31 7 70 9 63 3 69 1
63 -15 -4 -10 -14 -23 -22 -30 -14 -11 -14 -12 3 -13 16 0 17 -2 5 -16 -11
-14 -10 -18 6 -30 15 -11 20 -11 27 -1 6 9 8 9 8 0 0 -7 5 -13 11 -13 6 0 7 8
3 23 -4 12 -8 32 -9 44 -1 13 -5 26 -8 30 -12 11 -8 23 8 23 8 0 15 -6 15 -14
0 -19 17 -29 31 -20 8 4 7 9 -2 16 -11 8 -11 9 1 5 21 -5 26 -37 6 -37 -12 0
-14 -5 -6 -26 6 -15 6 -23 0 -19 -5 3 -14 -4 -20 -15 -6 -11 -8 -20 -5 -20 3
0 1 -9 -5 -19 -6 -13 -17 -18 -32 -15 -20 5 -19 3 5 -11 32 -18 35 -35 7 -35
-11 0 -20 7 -20 15 0 22 -18 18 -25 -6 -7 -21 -7 -21 -33 3 l-25 23 23 -33
c20 -27 22 -34 10 -45 -10 -10 -11 -9 -5 2 5 9 4 12 -4 7 -6 -4 -9 -18 -5 -34
3 -15 8 -41 11 -59 4 -28 7 -30 19 -18 8 7 14 18 14 24 0 5 4 12 9 16 6 3 8
-4 6 -15 -2 -13 1 -20 11 -20 9 0 12 5 8 12 -4 7 -3 8 4 4 11 -7 6 -36 -7 -36
-4 0 -12 5 -18 11 -8 8 -13 7 -18 -2 -5 -7 -4 -10 2 -6 6 4 13 0 17 -8 3 -8 1
-17 -4 -20 -11 -7 8 -65 21 -65 10 0 21 -26 33 -72 5 -24 3 -28 -19 -34 -14
-3 -25 -11 -25 -16 0 -6 7 -8 15 -4 8 3 15 1 15 -5 0 -5 -7 -12 -15 -15 -8 -4
-12 -11 -9 -16 4 -6 9 -6 14 2 5 8 10 2 15 -19 3 -17 11 -33 16 -36 5 -4 9
-11 9 -17 0 -7 -9 -2 -20 10 -26 27 -33 28 -25 2 4 -11 3 -20 -2 -19 -21 4
-22 -3 -8 -37 19 -46 19 -44 -5 -44 -11 0 -23 -7 -26 -15 -8 -21 -17 -19 -33
6 -12 20 -11 21 6 17 18 -5 19 -3 9 17 -6 13 -14 21 -18 18 -5 -2 -6 -7 -4
-11 2 -4 -2 -13 -10 -20 -12 -11 -14 -9 -14 11 0 30 21 49 46 41 18 -5 18 -5
1 6 -9 6 -15 15 -12 21 9 13 -4 50 -15 44 -5 -3 -15 1 -23 10 -13 13 -16 13
-21 -1 -3 -8 -2 -12 4 -9 6 3 10 -1 10 -10 0 -9 -6 -15 -12 -12 -8 2 -12 18
-10 38 2 31 1 32 -11 17 -18 -23 -27 -23 -27 -1 0 13 -3 14 -11 6 -6 -6 -19
-9 -28 -6 -12 3 -11 1 3 -11 24 -19 8 -21 -16 -2 -19 14 -25 32 -8 21 6 -3 10
-1 10 5 0 6 4 9 9 6 5 -4 7 3 4 14 -3 12 -8 18 -11 15 -9 -8 -32 17 -25 28 3
6 1 7 -5 3 -7 -4 -12 -1 -12 8 0 8 6 13 13 12 17 -2 57 -43 50 -50 -4 -3 -1
-6 5 -6 10 0 15 13 14 40 0 3 -3 16 -7 29 -5 16 -4 21 4 17 7 -5 8 -1 4 10 -4
11 -8 13 -11 6 -2 -7 -10 -12 -18 -12 -8 0 -14 -6 -14 -13 0 -8 -7 -14 -15
-14 -8 0 -15 5 -15 11 0 20 -24 -14 -26 -36 -2 -28 16 -54 26 -38 5 7 11 6 20
-5 11 -13 10 -15 -6 -12 -11 1 -24 6 -31 10 -6 4 -13 4 -16 0 -2 -5 -2 -2 -1
4 2 7 -6 17 -16 23 -11 6 -20 8 -20 4 0 -3 -7 -1 -15 6 -13 10 -15 9 -15 -9 0
-12 7 -24 15 -27 8 -4 15 -10 15 -15 0 -6 -9 -5 -20 1 -20 11 -25 35 -14 64 3
9 10 13 15 10 15 -9 39 15 32 32 -3 8 -1 14 5 14 6 0 12 -5 14 -11 2 -7 13 -5
32 5 16 8 35 12 42 9 8 -3 14 -1 14 4 0 17 -13 23 -26 12 -8 -6 -21 -9 -29 -5
-8 3 -15 1 -15 -4 0 -6 -5 -10 -11 -10 -6 0 -9 7 -6 15 4 8 1 17 -5 21 -7 4
-8 3 -4 -4 4 -7 2 -12 -4 -12 -21 0 -4 23 19 27 14 2 20 -1 15 -8 -4 -7 2 -7
17 1 30 16 39 25 17 17 -9 -3 -19 -3 -23 1 -21 21 -84 -5 -69 -29 4 -8 -1 -9
-17 -4 -15 4 -19 3 -12 -2 9 -7 5 -16 -17 -35 -28 -24 -34 -25 -31 -5 2 14
-17 7 -23 -9 -9 -24 -7 -31 10 -38 15 -6 15 -4 3 11 -13 16 -12 17 3 5 9 -8
22 -11 28 -7 5 3 10 2 10 -4 0 -5 -6 -11 -12 -14 -10 -3 -10 -9 -1 -25 14 -23
6 -37 -13 -21 -7 6 -10 17 -7 25 3 8 -1 14 -8 14 -7 0 -9 -3 -6 -7 4 -3 1 -13
-6 -21 -9 -13 -9 -14 1 -8 8 5 12 0 12 -14 0 -14 -4 -19 -12 -14 -9 5 -8 2 1
-10 10 -12 16 -13 21 -6 5 8 9 6 14 -5 6 -18 26 -12 26 8 0 7 -4 6 -10 -3 -8
-13 -10 -12 -10 3 0 37 25 9 28 -31 2 -31 7 -40 18 -35 17 6 19 -8 2 -25 -7
-7 -9 -12 -6 -12 17 0 38 34 33 54 -2 11 -2 15 1 8 3 -6 10 -9 16 -6 6 4 8 -2
3 -16 -8 -26 3 -110 14 -110 5 0 7 11 6 24 -3 22 -1 24 20 14 23 -10 23 -10 4
-29 -11 -11 -17 -25 -13 -32 4 -7 -2 -3 -14 7 -12 11 -22 26 -22 35 0 9 -5 23
-11 31 -9 13 -10 12 -5 -3 3 -10 0 -20 -7 -22 -8 -4 -11 -22 -9 -55 4 -51 -8
-65 -27 -32 -6 9 -11 12 -11 5 0 -6 4 -14 8 -17 10 -6 9 -62 -1 -72 -4 -4 -7
0 -7 9 0 10 -5 17 -11 17 -7 0 -8 11 -4 30 4 17 2 30 -3 30 -14 0 -9 43 6 48
7 2 10 -2 6 -12 -4 -10 -1 -16 7 -16 7 0 9 3 6 6 -3 4 -2 16 4 27 8 14 8 18 0
13 -7 -4 -11 1 -11 13 0 12 -4 21 -10 21 -5 0 -10 12 -10 26 0 23 2 25 15 14
13 -11 14 -10 9 4 -7 18 -20 21 -29 6 -11 -18 -23 -10 -21 14 2 14 -1 30 -5
38 -12 19 -31 -4 -31 -36 0 -24 -2 -25 -13 -9 -15 20 -42 26 -42 8 0 -7 6 -11
14 -8 8 3 13 -2 13 -16 0 -12 6 -21 13 -21 9 0 8 -3 -2 -9 -8 -5 -10 -14 -6
-21 5 -9 4 -11 -3 -6 -7 4 -12 2 -12 -4 0 -6 7 -13 15 -16 16 -6 11 -24 -6
-24 -6 0 -7 5 -3 12 4 7 3 8 -5 4 -6 -4 -9 -16 -6 -26 3 -10 1 -21 -4 -24 -5
-4 -12 3 -16 14 -3 11 -14 20 -23 20 -14 0 -14 2 -3 9 8 6 10 14 5 22 -5 8 -7
23 -6 34 1 13 -3 9 -12 -10 -7 -16 -11 -34 -8 -39 3 -5 0 -6 -6 -3 -11 8 -11
25 1 45 5 6 5 17 1 24 -5 7 -10 3 -16 -13 -7 -19 -11 -21 -18 -9 -7 11 -10 8
-14 -11 -13 -60 -11 -85 8 -70 11 9 15 1 20 -41 4 -29 7 -59 7 -65 -2 -33 -5
-43 -12 -43 -3 0 -9 -11 -11 -25 -3 -13 -2 -24 1 -23 19 2 16 -5 -11 -32 -17
-17 -27 -34 -24 -38 4 -3 11 0 16 8 5 8 11 12 14 9 3 -3 -6 -17 -19 -31 -17
-19 -27 -43 -31 -80 -3 -29 -13 -64 -23 -78 -10 -14 -21 -37 -25 -52 -3 -16
-11 -28 -16 -28 -6 0 -10 -10 -10 -23 0 -33 -34 -96 -75 -138 -19 -20 -35 -41
-35 -47 0 -6 -9 -16 -20 -22 -17 -9 -20 -8 -20 9 0 11 -3 27 -7 37 -3 10 -2
15 3 12 5 -4 9 12 9 33 0 24 -6 44 -15 49 -12 7 -12 12 -2 22 6 6 12 19 12 27
0 8 -11 0 -25 -19 -27 -37 -33 -59 -12 -41 8 6 17 8 20 4 10 -9 9 -35 -1 -29
-5 3 -6 -8 -4 -24 2 -15 -1 -36 -8 -47 -10 -16 -11 -15 -7 10 3 18 0 26 -7 24
-6 -2 -12 -10 -12 -18 -3 -32 -4 -33 -14 -23 -6 6 -6 21 -1 40 6 22 4 33 -7
44 -14 12 -15 11 -10 -7 3 -11 2 -27 -3 -34 -6 -10 -9 -11 -9 -1 0 6 -5 12
-11 12 -6 0 -8 -7 -5 -16 4 -10 2 -13 -6 -8 -8 5 -9 -1 -4 -20 5 -21 3 -27 -6
-24 -7 3 -13 20 -13 39 0 19 -8 45 -17 59 -23 31 -23 47 -1 29 15 -12 16 -12
10 4 -3 9 -2 17 3 17 5 0 8 15 8 33 -1 17 -3 26 -5 20 -3 -7 -11 -13 -18 -13
-8 0 -16 -8 -18 -17 -2 -10 -3 -4 0 12 2 17 8 31 13 33 6 2 10 10 10 17 0 8 7
21 16 30 18 17 28 85 13 85 -5 0 -9 16 -9 36 0 33 -2 35 -17 23 -16 -13 -17
-12 -4 4 11 14 11 21 3 29 -7 7 -12 16 -12 22 0 5 9 -1 20 -14 26 -30 26 -16
-1 26 -18 30 -19 35 -5 40 19 7 9 24 -55 91 -43 46 -57 89 -35 107 11 9 11 16
0 36 -13 25 -16 23 -28 -25 -3 -11 -4 -1 -3 23 2 23 1 42 -1 42 -2 0 -13 -10
-23 -22 -20 -23 -20 -23 -10 -1 14 29 14 56 0 47 -8 -5 -8 -1 0 14 15 29 14
37 -4 22 -8 -7 -15 -18 -15 -25 0 -6 -9 -20 -20 -30 -24 -22 -26 -8 -4 23 8
12 13 28 11 35 -3 7 -6 4 -6 -6 -1 -10 -5 -16 -10 -13 -4 3 -7 18 -5 33 l4 28
-15 -30 c-8 -16 -14 -36 -15 -42 0 -18 -10 -16 -26 5 -20 26 -17 44 6 37 11
-3 20 -2 20 3 0 6 -11 13 -25 16 -14 4 -25 11 -25 17 0 6 5 7 10 4 6 -3 10 -1
10 5 0 20 -25 4 -25 -16 -1 -10 -5 -26 -10 -33 -5 -9 -5 -16 1 -18 12 -4 5
-83 -8 -83 -5 0 -6 5 -2 11 3 6 0 15 -7 20 -15 9 -62 -28 -53 -42 3 -5 1 -9
-4 -9 -5 0 -15 -13 -22 -29 -12 -29 -35 -32 -52 -7 -4 6 -12 5 -22 -3 -10 -8
-16 -9 -16 -3 0 6 5 14 10 17 16 10 12 25 -5 19 -8 -4 -15 -10 -15 -16 0 -5
-7 -16 -15 -24 -8 -9 -15 -11 -15 -5 0 7 -10 7 -30 -1 -22 -7 -34 -7 -44 1 -7
6 -15 8 -19 5 -3 -3 -27 -8 -54 -10 -26 -2 -60 -9 -75 -15 -15 -6 -32 -8 -37
-4 -6 3 -11 2 -11 -3 0 -5 -9 -12 -20 -15 -11 -3 -20 -1 -20 5 0 5 -4 7 -8 4
-5 -3 -7 -18 -4 -34 5 -35 -10 -41 -89 -36 l-54 3 60 -10 c33 -5 114 -10 180
-12 117 -2 120 -3 121 -25 2 -32 -24 -42 -124 -49 -48 -3 -94 -10 -102 -15
-10 -6 -1 -7 25 -3 22 3 87 7 145 10 58 3 105 5 105 6 0 7 66 6 70 -1 3 -6 14
-10 24 -10 19 0 57 -47 47 -57 -3 -3 2 -12 10 -21 14 -13 17 -13 25 -1 5 8 9
25 9 38 0 19 3 21 14 12 11 -10 16 -9 23 3 7 13 10 12 21 -5 8 -12 9 -18 3
-14 -6 3 -11 2 -11 -4 0 -5 -9 -12 -20 -16 -11 -3 -19 -9 -19 -13 1 -4 1 -18
0 -32 -2 -24 -2 -24 -16 -6 -8 11 -15 16 -15 11 0 -5 -5 -4 -12 3 -14 14 -32
16 -24 3 4 -5 0 -11 -6 -14 -10 -4 -11 -7 0 -18 9 -10 12 -10 12 0 0 7 4 10
10 6 5 -3 7 -12 4 -19 -3 -7 2 -21 11 -30 15 -15 15 -16 -8 -16 -14 0 -28 -7
-32 -17 -5 -14 -3 -15 6 -6 6 6 18 9 25 6 17 -6 18 -19 2 -21 -7 0 -22 -3 -33
-6 -11 -2 -21 -5 -23 -5 -2 -1 3 -8 12 -16 15 -16 31 -21 22 -7 -2 4 4 8 15 8
10 0 19 -4 19 -8 0 -4 -6 -8 -14 -8 -15 0 -26 -30 -26 -74 0 -27 1 -28 13 -12
12 16 13 16 14 -3 1 -13 -4 -21 -13 -21 -11 0 -12 -4 -5 -19 6 -10 7 -22 3
-27 -4 -5 1 -2 10 5 10 7 16 17 13 20 -2 4 2 8 8 8 7 0 14 -9 14 -19 1 -10 -3
-16 -8 -12 -6 3 -9 -15 -8 -45 1 -28 6 -48 10 -45 10 6 31 -31 23 -39 -3 -3 3
-3 15 0 23 6 27 18 9 29 -7 4 -8 3 -4 -4 4 -7 5 -12 2 -12 -2 0 -11 13 -19 30
-11 21 -12 30 -3 33 8 3 7 9 -3 20 -11 14 -11 20 -1 32 7 9 19 14 27 11 15 -6
18 10 3 19 -6 4 -3 16 7 31 l16 25 24 -25 c12 -14 23 -30 23 -36 0 -5 5 -10
10 -10 7 0 7 -6 0 -19 -15 -29 -12 -35 6 -16 12 12 19 13 24 5 11 -19 33 45
24 72 -12 36 -13 48 -3 48 5 0 9 -12 9 -26 0 -20 4 -25 16 -20 14 5 15 4 4 -9
-11 -13 -9 -13 21 -1 32 14 34 13 35 -7 1 -12 4 -42 7 -66 5 -38 4 -41 -8 -25
-10 14 -10 21 -2 26 9 6 8 8 -1 8 -7 0 -18 -14 -24 -31 -6 -19 -15 -28 -24
-25 -10 4 -15 -9 -20 -44 -5 -36 -13 -53 -29 -64 -22 -15 -24 -14 -45 22 l-22
36 -14 -34 c-8 -18 -12 -41 -8 -49 4 -9 6 -22 5 -30 -1 -7 7 -22 18 -33 23
-20 27 -43 11 -53 -6 -4 -8 -11 -5 -16 4 -5 2 -9 -3 -9 -18 0 -21 14 -6 31 12
13 12 19 3 25 -8 4 -10 3 -5 -4 4 -7 1 -12 -9 -12 -9 0 -14 -4 -11 -9 7 -11
-22 -36 -31 -27 -3 3 -1 6 6 6 7 0 9 5 6 10 -11 19 -22 10 -29 -22 l-7 -33
-20 24 c-15 18 -17 27 -8 37 8 10 8 14 0 14 -6 0 -11 -4 -11 -10 0 -5 -6 -10
-14 -10 -8 0 -17 -6 -19 -12 -4 -9 -6 -7 -6 3 -1 9 -8 16 -16 16 -12 0 -12 -3
-2 -16 6 -9 16 -19 20 -22 4 -3 -3 -29 -16 -57 -13 -28 -26 -49 -29 -47 -3 3
-11 -1 -18 -10 -7 -8 -9 -15 -5 -15 4 0 2 -7 -5 -15 -14 -17 -30 -20 -30 -4 0
5 4 8 9 4 5 -3 12 -1 16 5 10 16 -21 12 -35 -5 -7 -8 -16 -12 -21 -9 -5 3 -9
2 -9 -3 0 -15 -48 -32 -54 -19 -3 6 -3 1 0 -11 4 -17 1 -23 -10 -23 -9 0 -16
-5 -16 -11 0 -8 -11 -9 -31 -5 -29 5 -31 4 -25 -18 6 -26 -8 -37 -47 -35 -18
0 -16 3 9 12 17 7 29 17 27 24 -5 15 -73 -15 -73 -32 0 -6 -15 -10 -34 -10
-19 0 -32 4 -29 9 4 5 -6 6 -21 2 -20 -5 -26 -3 -26 10 0 14 -2 14 -16 -1 -15
-15 -18 -15 -34 2 -9 10 -20 31 -24 46 -9 39 -40 37 -33 -3 4 -17 2 -32 -5
-36 -7 -4 -8 -3 -4 4 4 7 1 12 -8 12 -28 0 -17 -31 14 -41 17 -6 30 -15 30
-20 0 -5 10 -7 22 -5 12 1 37 0 56 -5 28 -6 31 -5 21 7 -6 8 -7 14 -2 14 5 0
16 -9 26 -20 9 -11 28 -20 42 -20 19 0 23 -4 18 -17 -5 -12 -2 -15 10 -10 9 3
17 2 17 -3 0 -6 -9 -10 -20 -10 -11 0 -20 -2 -20 -5 0 -11 24 -55 31 -55 13 0
19 -33 8 -46 -8 -10 -8 -14 0 -15 6 -1 15 -2 21 -3 14 -2 38 -39 33 -52 -2 -6
5 -14 16 -17 12 -3 21 -1 21 5 0 5 5 6 10 3 15 -9 1 -27 -16 -21 -10 4 -14 -2
-14 -19 0 -17 4 -23 14 -19 7 3 16 -2 19 -10 4 -10 1 -13 -9 -9 -9 3 -14 -1
-14 -12 0 -11 5 -15 14 -12 8 3 17 1 20 -6 2 -7 5 0 5 16 1 16 7 27 15 27 8 0
16 6 19 13 2 6 2 -12 1 -41 -2 -29 -6 -57 -9 -62 -3 -5 0 -12 6 -16 8 -5 9 -3
4 6 -5 8 -4 11 3 7 11 -7 10 -20 -2 -49 -4 -9 -5 -22 -1 -28 3 -5 1 -10 -5
-10 -6 0 -4 -10 5 -24 13 -19 13 -25 2 -35 -8 -6 -17 -8 -20 -4 -15 14 -6 -12
11 -31 16 -19 16 -20 0 -7 -16 12 -17 11 -7 -18 6 -17 9 -40 6 -51 -3 -11 -1
-23 4 -26 5 -3 9 -13 9 -22 0 -15 -2 -15 -10 -2 -6 9 -10 10 -10 3 0 -7 9 -17
20 -23 11 -6 20 -16 20 -23 0 -8 -3 -9 -8 -1 -4 6 -16 14 -27 17 -16 6 -15 3
5 -13 23 -18 26 -18 38 -3 11 15 12 15 12 -5 0 -15 -6 -22 -20 -22 -12 0 -20
-7 -20 -17 0 -14 2 -15 9 -5 7 11 10 10 15 -3 11 -29 7 -41 -15 -42 -14 -1
-19 3 -15 12 3 8 1 17 -5 20 -5 4 -7 10 -4 14 2 5 -7 6 -20 3 -29 -5 -30 -8
-10 -46 9 -16 13 -31 11 -33 -2 -3 0 -18 6 -34 14 -41 50 -37 59 6 5 25 7 27
14 12 4 -11 3 -23 -4 -30 -20 -20 -12 -28 13 -12 13 9 27 12 30 7 7 -11 -27
-39 -42 -34 -7 2 -12 -1 -12 -7 0 -6 -8 -11 -17 -11 -13 0 -14 -3 -5 -12 9 -9
18 -9 37 0 15 7 25 8 25 2 0 -6 -4 -10 -10 -10 -5 0 -10 -4 -10 -10 0 -5 12
-10 28 -10 19 0 23 -3 13 -9 -9 -6 -12 -18 -7 -37 4 -18 3 -24 -2 -16 -9 14
-12 12 -50 -33 -7 -8 -17 -13 -23 -10 -5 4 -9 -1 -9 -10 0 -12 4 -14 19 -6 10
6 21 8 24 5 3 -3 8 4 12 15 3 12 15 21 25 21 10 0 21 6 23 13 4 9 6 9 6 0 1
-7 5 -13 11 -13 5 0 7 6 4 14 -7 17 12 30 22 15 3 -6 -3 -21 -15 -32 -13 -13
-21 -17 -21 -8 0 25 -64 -52 -66 -80 -1 -16 1 -29 4 -29 4 0 111 78 237 173
177 133 229 178 227 193 -2 15 -1 16 7 5 14 -21 83 32 75 57 -4 12 -3 13 3 4
7 -9 33 5 101 55 50 38 142 104 204 148 219 153 424 311 497 380 109 103 233
246 291 333 27 42 59 91 71 107 l21 30 -7 -55 c-11 -80 -50 -210 -102 -335
-25 -60 -46 -120 -47 -132 -1 -11 -4 -19 -7 -17 -4 2 -10 -4 -13 -13 -4 -9 -1
-20 6 -24 10 -7 10 -11 -1 -21 -11 -11 -13 -11 -6 1 5 9 4 12 -3 7 -6 -4 -8
-14 -5 -23 5 -12 3 -14 -7 -8 -9 5 -11 4 -6 -4 5 -7 2 -26 -5 -42 -7 -18 -15
-26 -19 -19 -4 6 -7 -2 -7 -18 0 -18 -57 -142 -142 -313 -79 -156 -151 -304
-161 -329 -10 -25 -31 -79 -48 -120 -72 -178 -250 -675 -347 -970 -26 -80
-103 -311 -170 -515 -68 -203 -214 -648 -326 -988 -112 -340 -205 -613 -207
-607 -2 6 3 66 12 133 35 279 47 402 55 590 5 109 12 201 15 204 3 4 6 -3 6
-15 0 -11 4 -23 8 -26 5 -3 6 8 4 25 -2 16 0 29 6 29 12 0 8 159 -6 245 l-8
50 -11 -85 -11 -85 4 125 c5 124 4 137 -53 502 -3 20 -2 45 2 55 5 10 7 21 7
26 -1 4 3 7 9 7 5 0 8 4 4 9 -3 5 2 17 11 25 8 9 12 16 7 16 -4 0 -3 4 3 8 5
4 26 39 44 77 42 86 39 82 50 65 8 -13 10 -12 10 3 0 9 5 17 11 17 6 0 17 7
25 15 9 8 13 15 11 15 -3 0 13 19 36 43 22 23 50 58 62 77 30 47 61 74 76 64
8 -5 10 -3 4 6 -6 10 -3 12 11 6 10 -4 -125 137 -301 314 -244 244 -326 320
-345 321 -22 0 -23 1 -6 8 13 5 16 10 8 15 -6 4 -33 -2 -58 -13 -67 -30 -92
-27 -58 6 14 14 14 17 0 31 -14 14 -21 11 -73 -23 -78 -51 -202 -173 -273
-267 -71 -94 -120 -197 -148 -308 -56 -227 -81 -339 -87 -386 -7 -46 -5 -52
14 -57 27 -7 48 20 85 107 16 36 33 66 38 66 5 0 7 4 3 9 -3 5 -1 12 4 15 9 6
6 -42 -4 -71 -7 -20 5 -43 22 -43 12 0 13 -7 8 -27 -4 -16 -20 -100 -36 -188
-35 -195 -83 -388 -143 -577 -24 -79 -54 -177 -67 -218 -19 -66 -23 -72 -30
-51 -12 32 -4 99 21 161 19 48 19 66 4 130 -3 14 -6 32 -8 40 -2 15 -20 60
-38 94 -7 14 -6 16 4 10 9 -6 9 -3 -2 10 -8 10 -15 23 -16 30 -1 6 -13 53 -27
104 -22 80 -25 108 -22 200 7 154 15 252 26 279 5 12 7 23 5 23 -2 0 2 23 9
51 11 42 12 116 5 398 -5 190 -12 396 -14 456 -3 61 -8 220 -11 355 -5 227
-18 424 -32 477 -5 21 -6 22 -34 7 -16 -8 -29 -17 -29 -20 0 -3 4 -3 9 0 5 3
11 -3 14 -14 3 -11 2 -18 -3 -15 -4 3 -10 -2 -14 -10 -3 -8 -1 -17 4 -20 5 -3
7 -14 5 -25 -2 -12 0 -18 6 -15 5 4 9 1 9 -4 0 -6 -5 -11 -11 -11 -6 0 -8 -7
-5 -16 3 -8 -1 -23 -10 -31 -9 -9 -14 -26 -11 -39 2 -13 1 -21 -4 -19 -4 3
-19 -28 -34 -67 -39 -104 -39 -105 -82 -193 -37 -77 -59 -144 -89 -270 -15
-63 -22 -547 -10 -685 3 -36 10 -139 16 -230 12 -172 58 -517 84 -630 9 -36
16 -85 16 -110 0 -25 14 -106 30 -180 17 -74 46 -213 65 -307 19 -95 39 -191
45 -213 5 -22 15 -59 21 -82 15 -62 30 -98 41 -98 5 0 7 4 4 9 -3 5 -8 26 -11
47 -2 21 -9 41 -15 44 -6 4 -9 19 -6 33 3 15 1 27 -4 27 -12 0 -26 50 -46 160
-9 52 -23 120 -30 150 -17 64 -18 83 -4 75 6 -3 7 1 3 10 -5 13 -8 14 -15 3
-6 -9 -8 -1 -6 22 1 19 -2 42 -7 49 -12 21 -23 90 -15 93 4 2 3 14 -3 28 -5
14 -9 33 -8 43 1 9 -2 17 -7 17 -5 0 -9 29 -10 65 0 36 -5 80 -11 98 -21 66
-77 442 -86 582 -2 33 -6 83 -9 110 -24 249 -28 752 -7 838 8 32 19 61 24 64
6 4 8 -3 3 -18 -31 -108 -31 -420 0 -804 19 -237 35 -345 114 -770 14 -78 129
-641 154 -755 14 -63 32 -151 41 -195 9 -44 28 -129 41 -190 14 -60 26 -119
29 -130 2 -11 8 -33 13 -50 5 -16 8 -38 6 -47 -1 -10 2 -18 7 -18 6 0 9 -6 8
-12 -1 -7 3 -25 9 -40 17 -40 44 -180 38 -195 -3 -8 -1 -11 4 -8 6 3 10 -4 10
-17 0 -18 -2 -20 -10 -8 -7 10 -10 11 -10 2 0 -7 7 -15 15 -18 8 -4 20 -37 30
-82 9 -43 25 -112 36 -155 12 -47 18 -91 14 -110 -4 -23 -3 -28 4 -18 7 11 11
5 16 -25 3 -21 12 -68 20 -104 33 -144 54 -282 49 -313 -4 -23 -3 -28 4 -18 9
12 12 9 17 -15 4 -16 8 -35 11 -41 6 -22 -6 -14 -16 10 -8 17 -9 15 -4 -13 4
-19 12 -38 18 -42 8 -6 8 -8 0 -8 -12 0 -5 -50 21 -150 11 -41 13 -45 9 -15
-3 22 -7 54 -10 70 l-4 30 10 -30 c26 -83 47 -200 36 -207 -8 -6 -8 -8 0 -8
16 0 22 -18 34 -98 6 -37 13 -78 16 -92 4 -20 3 -22 -5 -10 -9 12 -11 9 -11
-15 0 -23 3 -27 10 -15 5 8 10 11 11 5 0 -5 2 -35 3 -65 2 -30 7 -68 11 -84 7
-27 6 -29 -14 -23 -18 4 -20 3 -10 -9 6 -8 13 -31 14 -52 2 -20 4 -42 4 -48 1
-6 7 -11 15 -11 12 0 12 8 0 49 -15 49 -9 91 7 52 6 -12 7 -4 4 21 -5 39 -5
39 6 11 8 -20 9 -34 2 -45 -11 -17 16 -129 28 -117 3 3 4 -7 1 -23 -5 -33 15
-101 29 -101 5 0 9 -5 9 -11 0 -5 -4 -8 -9 -5 -10 7 -9 -6 3 -42 4 -12 12 -20
17 -17 5 4 9 5 9 3 0 -2 4 -18 10 -36 7 -28 7 -33 -5 -28 -9 3 -12 0 -8 -9 3
-8 8 -13 12 -11 9 6 29 -66 71 -249 17 -77 47 -205 66 -285 19 -80 41 -176 50
-215 9 -38 30 -116 48 -172 20 -64 28 -104 21 -107 -6 -3 -2 -11 8 -19 10 -8
19 -30 20 -48 1 -19 9 -40 17 -47 8 -8 10 -11 3 -8 -6 3 -3 -12 8 -33 10 -22
19 -47 19 -55 0 -9 6 -33 14 -53 21 -55 73 -233 102 -343 13 -52 29 -105 34
-118 7 -15 7 -21 0 -17 -6 3 -7 -1 -4 -9 3 -9 10 -13 15 -10 5 3 8 2 7 -3 -4
-16 13 -97 24 -110 6 -7 7 -13 4 -13 -4 0 -2 -10 5 -21 9 -17 8 -20 -3 -13
-11 7 -11 5 0 -9 8 -9 11 -21 7 -27 -3 -5 -1 -10 5 -10 7 0 10 -7 6 -15 -3 -8
0 -15 5 -15 6 0 9 -9 6 -20 -3 -11 -1 -22 3 -25 5 -3 9 -13 8 -23 0 -9 8 -37
17 -62 9 -25 18 -56 20 -70 1 -14 3 -25 4 -25 1 0 10 -30 20 -67 9 -38 13 -68
8 -68 -4 0 -1 -7 8 -16 13 -13 13 -19 3 -32 -11 -13 -11 -14 1 -7 11 6 13 2 8
-22 -3 -17 -2 -43 4 -59 9 -28 9 -28 4 5 -8 56 6 27 21 -41 16 -76 17 -88 4
-68 -5 8 -10 26 -10 39 0 13 -3 22 -6 18 -11 -11 6 -77 20 -77 16 0 33 -93 18
-98 -5 -1 -7 -13 -4 -24 5 -21 6 -21 13 -2 7 18 8 17 8 -3 1 -13 -3 -23 -9
-23 -5 0 -7 -7 -3 -16 4 -11 8 -12 13 -4 5 8 9 6 12 -7 3 -10 -1 -24 -9 -31
-9 -9 -10 -19 -4 -30 5 -9 14 -51 20 -92 7 -41 16 -92 20 -112 8 -35 7 -38
-13 -38 -16 0 -18 2 -7 9 11 7 8 10 -10 16 -21 7 -21 9 -6 20 15 11 15 14 -7
34 -27 25 -39 58 -25 67 5 3 9 2 8 -3 -3 -19 2 -46 8 -40 3 4 12 -1 20 -11 12
-15 12 -14 4 8 -9 27 -11 35 -11 50 0 6 -8 10 -19 10 -11 0 -21 9 -24 22 -8
28 0 37 10 12 11 -25 29 -27 29 -3 0 10 -4 19 -9 19 -4 0 -5 5 -1 12 5 7 2 9
-8 5 -16 -6 -47 37 -35 49 4 4 10 -4 15 -16 11 -28 26 -10 17 20 -4 12 -12 17
-23 13 -14 -5 -14 -3 2 9 15 12 17 19 8 34 -11 18 -11 18 -12 -3 0 -13 -4 -23
-10 -23 -5 0 -10 11 -10 25 0 14 5 25 10 25 6 0 10 14 10 31 0 23 -4 30 -14
26 -10 -4 -16 5 -21 34 -4 21 -11 41 -16 45 -5 3 -7 10 -4 15 3 5 1 34 -4 66
-6 31 -7 59 -3 62 4 3 5 20 1 36 l-7 30 -2 -30 -2 -30 -8 29 c-7 23 -5 32 8
42 9 8 13 14 8 14 -5 0 -3 7 4 15 11 13 10 14 -3 9 -9 -3 -17 -13 -19 -22 -2
-10 -14 24 -27 73 -13 50 -28 98 -33 108 -6 12 -5 17 7 17 9 0 15 8 14 23 -1
16 -2 18 -6 4 -5 -21 -23 -23 -23 -2 0 8 -4 23 -9 33 -13 25 -37 106 -60 197
-18 71 -76 284 -85 310 -1 6 -9 31 -16 58 -7 26 -16 50 -21 53 -5 3 -9 16 -9
29 0 25 -50 129 -58 120 -5 -5 22 -98 69 -230 16 -44 35 -107 44 -140 56 -222
93 -350 115 -400 9 -21 22 -79 41 -177 6 -32 15 -58 20 -58 6 0 8 -9 4 -19 -3
-11 -1 -22 4 -26 6 -3 11 -16 11 -28 1 -39 6 -81 14 -115 4 -18 9 -47 11 -65
1 -17 6 -41 11 -51 6 -15 4 -17 -6 -11 -10 6 -12 3 -8 -13 4 -16 2 -22 -9 -22
-10 0 -14 6 -10 20 3 11 2 22 -2 24 -4 3 -8 -3 -9 -12 -8 -58 -6 -65 11 -68
15 -2 16 0 6 12 -9 11 -8 14 5 14 9 0 17 -6 18 -12 0 -7 2 -17 2 -23 1 -5 4
-14 7 -20 3 -5 5 -23 4 -38 -1 -16 4 -31 11 -34 7 -2 10 -11 7 -19 -3 -8 -9
-11 -14 -8 -5 3 -7 10 -4 15 4 5 0 9 -9 9 -8 0 -17 6 -20 13 -3 6 -3 1 1 -13
4 -14 8 -38 9 -54 1 -15 7 -33 14 -40 9 -8 11 -6 10 9 -3 32 -1 45 9 45 5 0 8
-20 7 -45 -1 -25 1 -45 5 -45 5 0 7 -16 5 -35 -1 -19 2 -35 8 -35 5 0 1 -7
-10 -15 -10 -8 -15 -15 -11 -15 4 0 3 -9 -3 -21 -10 -17 -8 -21 9 -26 25 -6
27 -18 5 -27 -16 -6 -11 -26 7 -26 6 0 7 4 4 10 -3 5 0 7 8 4 7 -2 14 -11 14
-19 0 -8 -4 -12 -8 -10 -4 3 -9 -2 -13 -10 -3 -10 1 -15 12 -16 9 0 12 -3 5
-5 -7 -3 -9 -18 -6 -40 3 -20 1 -34 -5 -34 -12 0 -24 28 -17 40 3 5 1 11 -4
15 -6 3 -8 12 -5 19 3 8 0 17 -7 22 -7 4 -10 3 -6 -3 3 -5 -3 -24 -13 -41 -16
-26 -17 -30 -3 -25 11 4 14 2 9 -5 -5 -8 -1 -10 10 -5 12 4 15 2 12 -8 -6 -15
-11 -15 -43 -3 -17 6 -18 5 -8 -7 16 -20 16 -28 -2 -45 -12 -12 -13 -20 -4
-36 10 -19 9 -20 -10 -15 -12 3 -19 1 -15 -4 3 -5 12 -9 20 -9 8 0 12 -4 9
-10 -3 -5 -1 -10 4 -10 6 0 11 7 11 15 0 8 6 15 13 15 8 0 7 4 -3 10 -8 5 -10
10 -4 10 18 0 24 -13 13 -27 -6 -7 -7 -13 -2 -13 5 0 9 -9 9 -20 0 -11 -6 -20
-13 -20 -7 0 -13 5 -13 11 0 5 -4 8 -9 4 -5 -3 -12 -1 -16 5 -3 5 -13 10 -21
10 -14 0 -13 -2 0 -16 19 -19 20 -26 3 -43 -10 -11 -8 -11 10 -2 17 8 25 8 35
-2 7 -8 25 -16 40 -19 21 -4 25 -2 20 11 -5 14 -4 14 11 2 15 -12 17 -12 11 3
-5 13 -1 15 17 13 25 -4 26 -6 28 -58 0 -17 5 -28 11 -24 5 3 10 2 10 -4 0 -5
-8 -12 -19 -16 -14 -4 -18 -14 -16 -40 2 -41 -2 -44 -15 -12 -5 12 -9 15 -9 7
-1 -30 14 -41 42 -31 17 7 27 7 27 1 0 -15 27 -12 44 6 15 14 16 14 16 0 0 -9
5 -16 10 -16 12 0 13 27 1 34 -11 7 -2 56 11 56 5 0 8 -6 7 -13 -4 -29 2 -42
11 -22 7 16 9 17 9 3 1 -9 -3 -19 -9 -23 -5 -3 -7 -12 -3 -20 4 -13 225 -15
1752 -15 l1747 0 64 73 c36 39 104 112 151 162 89 93 247 272 333 379 27 34
89 107 138 164 49 56 110 133 135 170 76 111 81 101 6 -16 -37 -58 -43 -76
-28 -77 6 0 20 -7 33 -14 22 -12 22 -14 8 -30 -16 -18 -12 -31 8 -31 6 0 4 5
-4 11 -12 8 -12 10 -1 7 8 -2 15 -12 17 -21 1 -9 -2 -15 -7 -12 -5 4 -6 -1 -3
-9 3 -9 10 -13 15 -10 5 3 6 -2 3 -10 -3 -9 -10 -13 -15 -10 -15 9 -10 -3 8
-17 14 -12 16 -12 8 0 -5 10 -4 12 4 7 6 -4 9 -11 7 -15 -10 -16 -14 -61 -5
-56 5 4 7 10 4 15 -3 5 -1 11 4 15 11 6 7 -27 -5 -48 -5 -7 0 -6 12 3 10 8 16
11 12 6 -4 -5 -2 -18 4 -30 7 -11 13 -25 14 -31 0 -5 2 -12 3 -15 7 -15 6 -48
-1 -44 -4 3 -8 -2 -8 -10 0 -9 -3 -15 -7 -13 -5 1 -9 -3 -11 -8 -4 -11 -30
-28 -48 -31 -11 -2 -13 64 -1 83 4 6 -1 17 -11 24 -15 13 -16 12 -4 -3 8 -10
9 -19 3 -22 -12 -8 -25 29 -16 44 4 6 3 10 -2 9 -20 -4 -24 2 -12 18 10 12 10
15 1 9 -13 -8 -34 32 -24 48 3 5 0 6 -6 2 -16 -10 -15 6 1 24 10 12 9 12 -4 2
-15 -12 -29 -7 -29 10 0 4 5 7 11 5 6 -1 13 6 14 16 2 11 1 16 -2 13 -4 -3
-13 0 -22 7 -14 10 -14 10 -3 -5 8 -10 9 -19 3 -22 -10 -7 -27 31 -22 53 1 7
-2 10 -9 6 -6 -4 -8 -16 -4 -27 3 -11 2 -18 -3 -15 -5 3 -9 -3 -9 -13 0 -10 4
-16 8 -14 4 3 8 -2 8 -11 0 -10 -5 -13 -12 -9 -10 6 -10 4 -2 -7 6 -8 10 -28
9 -46 0 -17 3 -29 8 -26 5 3 6 11 3 19 -3 8 -1 14 4 14 13 0 13 -37 1 -45 -6
-3 -8 -15 -6 -27 6 -28 11 -32 19 -13 3 9 2 14 -2 11 -5 -3 -9 1 -9 9 0 11 4
12 13 4 11 -9 12 -3 9 28 -4 29 -2 34 6 23 8 -12 9 -10 4 9 -5 17 -4 21 5 16
6 -4 10 -16 7 -26 -3 -12 -1 -17 5 -12 7 4 8 1 3 -7 -4 -7 -2 -16 6 -22 11 -8
10 -8 -4 -4 -15 5 -17 2 -12 -13 3 -11 1 -22 -4 -26 -7 -4 -8 1 -4 11 4 12 3
15 -5 10 -7 -4 -12 -13 -12 -21 0 -7 -6 -16 -12 -18 -10 -4 -10 -6 0 -6 6 -1
12 -6 12 -12 0 -5 -4 -8 -9 -4 -6 3 -8 -4 -5 -17 3 -13 6 -49 9 -81 2 -33 7
-62 10 -65 4 -4 5 8 2 26 -3 17 -2 30 2 28 7 -5 7 31 0 44 -6 11 -4 88 2 84 7
-4 46 36 41 43 -2 3 -2 7 1 9 5 6 21 -47 18 -59 -1 -5 3 -6 8 -3 11 7 8 -50
-3 -61 -5 -4 -5 2 -1 15 8 26 -11 56 -29 45 -6 -4 -5 1 3 10 20 25 8 31 -13 8
-20 -22 -35 -98 -18 -87 7 4 9 -3 6 -20 -3 -19 -1 -24 8 -18 8 5 8 1 -2 -10
-8 -11 -13 -29 -12 -42 2 -15 -2 -24 -10 -24 -8 0 -9 -3 -2 -8 6 -4 14 -16 17
-26 6 -16 5 -17 -7 -7 -12 10 -13 8 -9 -11 3 -13 10 -28 14 -34 5 -6 5 -15 1
-19 -4 -5 -1 -5 6 0 10 5 11 10 3 18 -15 15 -14 24 5 31 14 5 15 4 5 -8 -8
-10 -9 -16 -1 -21 7 -4 7 -12 0 -24 -11 -22 -5 -62 12 -76 17 -13 24 -50 8
-40 -9 6 -9 2 -1 -14 7 -12 9 -27 5 -33 -5 -7 -3 -8 6 -3 10 6 12 3 8 -13 -4
-12 -3 -20 2 -17 4 3 10 -1 13 -9 5 -12 42 -15 201 -16 l196 -1 -2 4488 -3
4487 -110 42 c-761 289 -1303 493 -1677 629 -249 91 -578 216 -732 278 l-279
112 -88 95 c-48 52 -115 115 -148 140 -51 38 -74 65 -136 168 -44 71 -95 171
-122 239 -30 78 -58 132 -83 160 -30 34 -36 48 -32 73 2 18 -1 42 -8 55 -11
20 -11 27 1 41 16 20 23 58 8 49 -6 -4 -8 -14 -5 -22 3 -8 2 -11 -4 -8 -10 6
-6 87 5 105 3 6 10 8 15 5 4 -3 6 3 4 12 -8 37 -11 103 -4 103 4 0 6 20 6 44
-1 24 2 42 6 40 4 -2 8 6 11 18 2 13 2 -29 0 -92 -4 -112 -4 -114 12 -80 24
51 83 249 110 367 26 116 29 123 56 123 61 0 145 66 203 160 44 72 45 108 2
200 -14 30 -26 62 -26 70 0 13 -1 13 -11 0 -8 -11 -12 -12 -16 -2 -2 6 -13 12
-23 12 -24 0 -34 68 -13 90 13 13 17 12 36 -10 13 -15 30 -24 41 -22 10 2 22
-2 26 -8 6 -9 14 -6 30 10 20 20 22 32 20 110 -1 14 -1 75 0 135 1 74 -3 130
-14 170 -25 94 -37 125 -47 125 -5 0 -9 19 -9 43 1 39 2 41 15 23 13 -18 50
-125 72 -211 6 -21 9 0 11 72 2 69 -2 122 -13 163 -9 33 -14 64 -11 69 10 16
38 570 33 651 -18 287 -52 464 -134 713 -74 227 -250 580 -353 709 -91 115
-283 265 -486 380 -205 117 -627 316 -744 352 -334 101 -668 145 -880 116z
m1379 -1661 c13 -1 13 -2 -1 -6 -10 -2 -18 -12 -18 -21 0 -29 12 -62 22 -62 5
0 6 5 3 10 -3 6 -1 10 6 10 6 0 9 -8 6 -20 -3 -11 -1 -20 4 -20 12 0 12 -47 0
-54 -12 -8 -2 -53 15 -67 11 -9 12 -4 9 25 -3 19 0 38 5 41 6 3 10 0 10 -7 0
-10 2 -10 9 1 5 8 11 9 15 3 3 -5 -1 -12 -9 -16 -8 -3 -15 -13 -15 -22 0 -12
6 -15 25 -10 30 8 34 -10 5 -19 -24 -8 -25 -24 -4 -51 15 -18 15 -18 11 9 -3
22 -2 25 9 16 8 -6 11 -15 8 -20 -3 -5 0 -9 5 -9 6 0 11 -9 11 -20 0 -12 5
-17 14 -14 8 3 17 0 21 -5 3 -6 12 -8 18 -5 9 5 9 4 0 -6 -6 -7 -9 -19 -6 -28
4 -10 2 -13 -5 -8 -6 3 -13 2 -17 -4 -9 -14 -21 -13 -23 3 -2 24 -20 82 -22
72 -6 -26 -4 -41 5 -47 6 -4 2 -8 -8 -8 -10 0 -16 -4 -12 -9 3 -6 -4 -8 -15
-6 -13 2 -20 -1 -20 -11 0 -8 5 -12 11 -9 6 5 9 -9 8 -39 -2 -29 -7 -46 -16
-46 -7 0 -17 -9 -23 -21 -10 -17 -14 -18 -28 -7 -9 7 -14 9 -10 4 4 -5 4 -16
-1 -25 -5 -10 -2 -27 10 -46 11 -16 19 -24 19 -16 0 8 3 12 6 9 6 -7 -17 -48
-27 -48 -3 0 -12 17 -19 39 -9 28 -9 43 -1 59 8 15 7 23 -5 33 -13 10 -17 10
-25 -2 -6 -10 -9 -10 -9 -1 0 18 -18 15 -23 -5 -3 -12 -5 -8 -6 9 -1 30 -21
49 -22 21 0 -10 -3 -13 -5 -7 -3 6 0 22 5 35 5 13 10 18 10 10 1 -16 30 -40
49 -41 7 0 2 11 -12 24 -25 22 -36 43 -17 32 5 -4 7 4 4 16 -5 23 -5 23 10 3
16 -20 16 -19 11 5 -4 20 -1 19 15 -10 l20 -35 -4 45 c-2 25 -5 52 -6 60 -5
35 1 49 19 43 16 -6 16 -5 -1 14 -12 14 -15 23 -7 28 5 3 8 11 4 16 -8 14 -24
1 -24 -21 0 -10 -5 -20 -11 -22 -6 -2 -11 -22 -12 -44 -1 -26 -5 -41 -14 -41
-7 0 -13 4 -13 8 0 5 -15 19 -34 31 -32 22 -36 27 -36 47 0 5 -7 17 -16 25 -8
9 -13 20 -10 25 8 12 48 1 65 -18 7 -9 5 -3 -4 13 -9 16 -12 25 -6 22 6 -4 19
0 28 10 16 16 16 16 -5 10 -16 -5 -22 -4 -20 6 2 7 -4 12 -12 10 -10 -1 -8 4
7 16 15 13 18 23 12 33 -5 8 -9 19 -8 24 0 6 6 -1 13 -15 8 -14 12 -28 10 -32
-3 -5 1 -8 9 -8 8 0 14 7 13 16 0 9 6 19 14 21 12 4 13 3 1 -5 -16 -11 -5 -36
11 -26 7 4 8 2 4 -4 -4 -6 1 -20 11 -32 18 -21 43 -27 43 -10 0 6 -4 10 -10
10 -5 0 -7 13 -3 30 4 20 2 30 -7 30 -7 0 -10 -7 -7 -15 4 -8 2 -17 -3 -20 -4
-3 -6 12 -4 34 4 32 2 39 -13 37 -10 0 -19 7 -21 19 -2 11 -9 23 -16 28 -8 5
-8 9 2 15 7 5 10 16 7 24 -4 9 -2 19 4 22 10 6 29 -67 23 -87 -1 -5 2 -6 8 -2
6 3 8 10 6 14 -3 4 -7 34 -10 67 -3 52 -3 55 6 27 6 -18 18 -34 27 -34z m-68
-562 c9 -16 8 -17 -10 -8 -31 17 -37 13 -13 -9 12 -12 32 -40 43 -63 23 -44
38 -59 51 -51 14 9 9 46 -4 38 -7 -4 -9 -3 -5 1 4 5 13 10 20 11 7 1 20 5 30
9 10 4 17 3 17 -4 0 -6 -7 -11 -15 -11 -8 0 -15 -2 -15 -4 0 -2 -3 -11 -6 -20
-4 -11 -1 -16 11 -16 9 0 13 -4 10 -10 -3 -5 -1 -10 5 -10 6 0 10 10 8 22 -2
12 3 23 11 26 10 3 12 0 7 -13 -11 -29 3 -55 29 -55 13 0 25 5 27 12 6 17 28
0 28 -21 0 -9 -6 -26 -14 -37 -14 -19 -15 -19 -34 4 -16 18 -21 20 -26 7 -3
-8 0 -15 7 -16 8 0 8 -2 -1 -6 -8 -3 -26 9 -40 26 -16 19 -37 33 -52 33 -24 2
-76 28 -54 28 5 0 15 -5 22 -12 6 -6 14 -9 17 -6 3 3 -8 20 -25 38 -16 17 -27
36 -24 41 3 5 0 9 -5 9 -6 0 -11 -6 -11 -12 0 -9 -3 -8 -9 2 -6 8 -7 18 -5 22
3 5 2 7 -3 6 -4 -2 -19 5 -33 15 -13 9 -19 17 -13 17 7 0 15 -4 18 -10 12 -19
26 -11 16 8 -7 13 -7 22 0 29 8 8 7 18 -1 34 -11 24 -11 24 10 -1 11 -14 25
-33 31 -43z m808 -312 c32 -43 71 -55 64 -21 -2 12 6 2 18 -21 13 -28 28 -43
40 -43 12 0 26 -15 39 -40 11 -22 25 -39 32 -37 6 1 15 -11 19 -28 5 -16 16
-35 24 -42 9 -6 17 -23 19 -37 1 -14 11 -35 21 -46 10 -11 15 -23 12 -27 -4
-3 -7 -1 -7 5 0 14 -26 16 -34 3 -3 -4 10 -38 29 -74 19 -37 32 -73 29 -82 -7
-18 -26 -20 -22 -2 3 15 -57 143 -83 175 -10 14 -16 28 -13 33 3 5 -1 12 -10
15 -8 3 -13 11 -10 19 5 13 -49 84 -108 142 -18 18 -29 35 -25 39 4 4 16 -5
28 -20 29 -36 37 -25 10 13 -12 17 -27 28 -34 25 -13 -5 -42 29 -67 76 -16 31
-8 24 29 -25z m-416 12 c9 14 40 10 45 -6 2 -7 -3 -11 -11 -9 -9 2 -16 0 -16
-4 -2 -23 0 -28 14 -28 8 0 15 -9 15 -21 0 -29 18 -59 37 -59 11 0 14 -6 10
-21 -4 -16 -3 -18 9 -8 11 9 14 7 14 -14 0 -14 4 -29 10 -32 16 -10 5 -74 -15
-89 -27 -20 -12 -46 27 -46 30 0 31 -1 12 -15 -10 -8 -14 -15 -8 -15 6 0 10
-12 9 -27 -3 -42 -3 -43 -27 -44 -13 0 -17 -3 -10 -6 6 -2 9 -9 6 -15 -3 -5 0
-9 7 -7 31 4 42 -1 31 -13 -15 -18 -67 -14 -87 6 -16 16 -16 17 11 10 26 -7
28 -6 15 9 -7 9 -29 19 -50 23 -20 4 -50 15 -67 25 -36 22 -48 24 -38 7 4 -7
3 -8 -4 -4 -6 4 -9 12 -6 19 3 9 -16 12 -68 13 -40 0 -84 3 -98 7 -14 4 -41
11 -60 15 -26 7 -6 9 85 11 66 1 140 4 164 7 38 6 43 4 38 -10 -5 -12 0 -16
17 -16 18 0 27 8 34 29 10 28 9 30 -16 34 -25 4 -24 4 5 6 17 0 35 -4 39 -10
4 -8 9 -7 15 2 15 24 10 27 -38 23 -40 -4 -44 -3 -24 6 34 15 21 21 -20 10
-45 -13 -44 -14 -57 16 -9 19 -9 30 0 47 12 22 12 21 18 -8 3 -18 8 -25 13
-18 4 6 4 19 0 29 -4 12 -3 15 5 10 9 -6 9 -1 0 18 -6 14 -15 26 -20 26 -15 0
-8 26 13 51 12 14 16 25 9 27 -7 3 -7 9 2 20 7 9 8 13 2 9 -7 -4 -11 5 -11 26
-1 24 1 27 6 13 5 -12 10 -16 14 -9z m-208 -389 c22 -6 75 -21 118 -34 43 -13
89 -24 103 -24 13 0 24 -5 24 -11 0 -5 -4 -7 -10 -4 -25 16 -6 -13 24 -35 19
-14 30 -28 25 -31 -6 -3 -2 -12 7 -20 10 -8 15 -9 12 -4 -11 18 6 33 27 24 17
-6 17 -8 3 -8 -20 -1 -24 -16 -8 -26 6 -4 8 -10 5 -15 -2 -4 8 -13 24 -20 35
-14 46 -37 29 -57 -12 -15 -3 -27 41 -53 12 -7 12 -10 -2 -25 -15 -14 -20 -15
-34 -3 -13 10 -17 10 -20 0 -8 -22 -21 -3 -17 25 3 25 0 28 -26 28 -17 0 -30
-1 -30 -2 0 -1 3 -9 6 -18 5 -13 9 -14 15 -4 4 8 11 10 16 6 10 -10 -18 -28
-31 -20 -5 4 -24 7 -42 8 -30 1 -31 -1 -22 -20 10 -18 10 -19 -5 -6 -10 7 -17
22 -17 32 0 15 6 18 24 15 20 -4 24 -1 19 12 -6 15 -5 15 10 3 9 -7 17 -9 17
-4 0 18 -25 33 -57 33 -23 0 -33 5 -33 15 0 19 -14 19 -29 1 -10 -12 -8 -15
11 -18 17 -2 24 -10 26 -33 l3 -30 -19 24 c-14 17 -20 20 -24 10 -8 -21 -3
-51 11 -77 7 -13 10 -27 6 -30 -3 -3 -8 4 -12 16 -3 12 -11 22 -19 22 -8 0
-11 -6 -7 -17 5 -15 3 -15 -14 2 -19 19 -21 41 -3 30 5 -3 7 5 5 17 -3 13 -9
24 -14 26 -6 2 -7 10 -4 18 3 8 1 14 -4 14 -16 0 -12 -38 4 -45 14 -5 14 -8
-5 -20 -11 -9 -23 -25 -25 -38 -3 -14 -4 -10 -4 10 1 17 4 30 8 27 4 -2 10 0
13 5 4 5 1 13 -5 16 -5 4 -8 13 -5 21 3 8 0 14 -7 15 -7 0 -2 5 11 11 12 6 22
15 22 20 0 5 -4 6 -10 3 -14 -9 -12 2 6 33 15 25 15 25 0 8 -10 -13 -16 -15
-16 -7 0 8 -10 22 -22 32 -26 23 -18 35 12 19 30 -16 40 -1 13 17 -13 9 -23
20 -23 25 0 12 60 0 79 -16 11 -9 13 -8 9 4 -5 16 -54 48 -85 55 -34 8 -130
43 -160 58 -19 10 -34 12 -44 6 -12 -7 -12 -9 0 -9 8 0 50 -14 94 -32 58 -23
81 -37 88 -55 12 -31 11 -36 -1 -28 -5 3 -10 1 -10 -5 0 -6 -5 -8 -12 -4 -6 4
-8 3 -4 -4 3 -6 2 -13 -4 -17 -5 -3 -10 -11 -10 -18 0 -6 6 -3 13 7 12 16 14
16 26 2 8 -9 9 -16 3 -16 -5 0 -12 -7 -15 -14 -4 -10 -1 -13 7 -10 16 6 30
-23 15 -31 -5 -4 -8 -1 -7 5 4 15 -30 22 -51 10 -12 -6 -23 1 -41 25 -24 32
-111 85 -137 85 -7 0 -13 4 -13 9 0 5 -9 13 -20 16 -33 10 -23 21 15 17 30 -4
35 -1 35 16 0 13 -10 24 -27 31 -20 8 -22 10 -8 10 38 -2 45 1 45 22 0 20 3
21 53 15 28 -4 70 -12 92 -18z m666 -270 c6 -24 19 -52 28 -63 10 -11 30 -48
45 -83 24 -54 27 -74 25 -145 -1 -45 -7 -94 -11 -109 -6 -16 -6 -40 0 -62 8
-28 8 -36 -3 -36 -18 0 -24 108 -10 182 12 61 3 116 -27 173 -16 29 -17 20
-17 -180 1 -200 -14 -481 -26 -493 -5 -5 -9 38 -7 71 1 10 -3 15 -8 12 -6 -3
-10 -17 -10 -30 0 -13 -3 -30 -6 -39 -5 -13 -8 -13 -20 -1 -16 15 -19 29 -5
21 5 -3 12 2 16 11 3 10 1 19 -4 21 -6 2 -11 11 -11 20 0 14 2 14 9 3 7 -11
11 -9 20 7 9 16 8 26 -1 42 -10 15 -10 22 -1 28 7 4 10 27 7 62 -3 38 -1 50 6
40 8 -13 10 -12 10 3 0 22 -26 33 -44 18 -15 -13 -27 5 -25 37 0 12 3 9 10 -7
7 -19 12 -21 24 -11 8 6 18 10 22 7 4 -3 9 17 10 44 0 27 -1 49 -4 49 -9 0
-33 -29 -33 -40 0 -6 -4 -9 -8 -6 -9 6 -7 52 3 79 4 10 3 17 -4 17 -6 0 -11 7
-11 15 0 9 6 12 15 9 8 -4 12 -10 9 -15 -6 -10 9 -12 19 -3 9 10 -4 34 -19 34
-10 0 -13 7 -8 24 4 17 -2 31 -20 51 -14 15 -26 32 -26 36 0 5 -5 9 -10 9 -6
0 -3 -11 6 -25 9 -14 12 -25 8 -25 -14 1 -44 26 -44 37 0 6 -6 16 -14 22 -12
10 -14 8 -11 -16 2 -15 4 -31 4 -35 1 -5 10 -8 21 -8 11 0 20 -2 20 -4 0 -2 3
-11 6 -20 3 -9 1 -16 -5 -16 -6 0 -10 3 -10 8 3 19 -2 26 -10 13 -7 -11 -13
-7 -25 16 -8 17 -13 33 -10 36 3 3 -8 18 -26 34 -22 19 -29 33 -25 45 4 10 12
15 17 12 6 -4 6 -9 -2 -14 -8 -5 -8 -9 3 -13 10 -4 14 0 12 11 -2 9 -4 25 -4
34 -1 9 -11 19 -23 21 l-23 4 22 8 c15 5 21 14 19 31 -2 13 -5 27 -9 30 -3 3
-3 12 -1 19 7 17 64 -4 64 -23 0 -12 -3 -12 -17 -1 -16 13 -17 12 -5 -3 8 -9
20 -14 28 -11 7 3 17 -2 20 -11 11 -30 26 -4 20 35 -7 44 8 53 25 15 14 -30
39 -23 39 10 0 39 18 28 31 -18z m-710 -1066 c-6 -2 -11 -8 -11 -13 0 -6 6 -7
13 -3 6 4 10 5 7 1 -3 -3 -8 -5 -12 -4 -14 4 -47 -51 -46 -79 0 -16 -5 -49
-13 -74 -15 -52 -19 -121 -7 -114 5 3 8 11 7 17 -3 24 1 37 11 37 6 0 10 -8
10 -17 0 -15 2 -16 10 -3 5 8 10 11 10 6 0 -5 7 -3 15 4 12 10 15 10 15 -1 0
-8 -10 -19 -22 -24 -13 -6 -24 -20 -26 -33 -2 -12 -8 -20 -13 -17 -14 9 -11
-5 5 -21 16 -15 30 -19 22 -5 -7 11 22 36 31 27 3 -3 1 -6 -5 -6 -7 0 -12 -7
-12 -16 0 -9 -9 -18 -21 -21 -17 -5 -19 -11 -14 -44 6 -32 3 -39 -15 -49 -17
-9 -19 -15 -11 -23 9 -9 6 -15 -9 -27 -15 -11 -21 -30 -25 -72 -5 -63 0 -73
15 -32 7 18 7 30 0 39 -7 9 -5 19 10 36 l19 24 1 -23 c0 -13 4 -21 9 -18 4 3
8 -10 7 -28 0 -19 -5 -34 -11 -33 -8 2 -10 -3 -14 -35 -1 -10 -3 -10 -9 0 -10
14 -58 -45 -54 -65 2 -7 -2 -13 -8 -13 -5 0 -10 -5 -10 -11 0 -5 4 -7 10 -4
26 16 49 13 56 -7 5 -16 8 -18 15 -7 4 7 10 11 13 9 2 -3 -7 -18 -21 -35 -14
-16 -22 -23 -17 -15 7 13 5 13 -9 1 -16 -12 -22 -8 -18 12 1 5 -3 6 -8 2 -6
-3 -8 -12 -4 -20 3 -8 0 -15 -6 -15 -6 0 -11 -6 -11 -14 0 -7 -11 -25 -25 -40
-13 -14 -21 -26 -17 -26 9 0 -21 -20 -30 -20 -4 0 -5 8 -1 18 4 10 -2 8 -15
-8 -18 -22 -20 -23 -17 -5 2 11 4 21 4 23 1 1 1 5 2 10 0 4 9 10 20 14 21 8
26 28 7 28 -9 0 -8 4 2 10 22 14 33 12 26 -5 -3 -8 -1 -15 4 -15 6 0 9 13 8
29 -1 16 -5 28 -9 25 -4 -2 -10 2 -12 8 -3 7 -6 3 -6 -9 -1 -13 -5 -23 -11
-23 -5 0 -7 7 -3 16 5 14 3 15 -18 3 -14 -7 -19 -14 -12 -16 9 -3 10 -9 1 -23
-9 -14 -16 -16 -25 -8 -9 7 -13 7 -13 -1 0 -6 -5 -11 -11 -11 -6 0 -8 7 -5 15
17 42 16 47 -4 20 -20 -28 -21 -29 -15 -5 5 17 4 22 -3 15 -5 -5 -12 -19 -15
-30 -4 -16 -5 -15 -6 5 0 15 5 32 12 39 10 11 9 13 -5 8 -21 -7 -21 -7 -8 28
8 20 7 24 -3 18 -13 -8 24 43 61 83 12 14 22 29 22 34 0 5 14 25 30 43 17 19
30 39 30 44 0 6 9 22 21 37 19 24 85 194 94 241 2 11 11 65 20 120 9 55 21
104 25 109 5 5 6 16 3 25 -4 13 -3 14 5 2 9 -12 13 -12 26 -2 9 8 17 21 17 30
1 12 3 11 6 -4 3 -10 0 -21 -6 -23z m-42 -1196 c0 -20 -1 -20 -9 -1 -8 19 -9
19 -9 -2 -1 -13 -7 -23 -13 -23 -7 0 -5 -5 5 -11 9 -5 17 -21 17 -34 0 -30
-76 -139 -107 -154 -15 -7 -23 -19 -23 -36 0 -14 -11 -37 -25 -51 -14 -14 -25
-28 -25 -31 0 -14 -34 -43 -50 -43 -19 0 -34 -24 -32 -50 1 -10 0 -11 -4 -2
-8 18 -18 15 -47 -14 -14 -14 -31 -23 -36 -20 -11 7 -34 -28 -25 -37 3 -3 -2
-20 -12 -39 -12 -22 -19 -28 -22 -18 -3 7 0 16 7 18 6 2 11 11 11 19 0 25 -40
-15 -41 -41 0 -12 -3 -15 -6 -8 -3 7 0 26 6 42 13 38 4 40 -10 3 -7 -17 -13
-23 -16 -15 -3 7 -1 18 5 25 5 7 12 25 16 41 4 16 18 43 32 61 13 17 24 37 24
43 0 6 14 31 30 54 17 24 38 54 48 68 22 33 57 68 109 108 24 18 48 45 55 59
15 30 45 46 35 19 -5 -12 -3 -16 5 -13 7 2 13 13 12 25 0 12 3 19 7 16 5 -3
14 4 21 16 7 11 18 20 25 20 12 0 17 13 14 32 0 4 6 5 14 2 8 -4 15 -16 14
-28z m-328 -89 c-6 -6 -12 -20 -12 -31 -1 -17 -2 -18 -6 -3 -2 9 -9 17 -15 17
-5 0 -8 -6 -5 -12 6 -17 -30 -87 -47 -94 -8 -3 -16 -18 -20 -34 -3 -16 -14
-38 -24 -48 -18 -18 -62 -104 -62 -120 0 -5 -9 -17 -20 -27 -11 -10 -18 -20
-15 -23 2 -2 -5 -12 -17 -22 -21 -17 -19 -58 2 -45 5 3 10 1 10 -4 0 -6 -6
-11 -12 -11 -26 -1 -55 -36 -61 -74 -7 -44 -11 -51 -27 -41 -9 5 -9 10 -1 18
15 15 14 27 -3 21 -10 -4 -12 5 -9 36 3 28 1 40 -6 35 -6 -3 -11 -20 -11 -37
0 -17 -3 -28 -7 -24 -12 11 -10 70 2 78 6 4 2 8 -8 8 -13 0 -17 -5 -13 -17 3
-10 -1 -40 -9 -66 -13 -44 -13 -47 3 -45 10 2 16 -3 14 -11 -2 -8 3 -11 13 -8
21 9 19 2 -7 -29 l-23 -26 -5 28 c-4 22 -11 28 -33 28 -16 1 -31 -2 -33 -6 -3
-5 -10 -6 -15 -3 -5 4 -9 1 -9 -5 0 -6 -5 -8 -10 -5 -17 10 9 35 36 35 31 0
36 11 28 60 -5 30 -11 40 -21 36 -7 -3 -13 0 -12 7 1 6 1 21 0 32 l-2 20 -11
-20 c-7 -11 -12 -35 -11 -53 0 -18 -2 -31 -4 -28 -3 2 -5 8 -5 13 0 4 -4 13
-9 19 -15 18 11 102 33 107 10 3 21 1 24 -4 3 -5 0 -8 -7 -7 -6 2 -14 -3 -16
-9 -3 -7 2 -13 11 -13 9 0 17 -8 17 -17 1 -17 2 -17 6 0 2 9 9 15 14 11 5 -3
7 -10 4 -15 -4 -5 -1 -9 4 -9 17 0 13 19 -9 50 -18 25 -18 29 -4 41 12 10 17
10 23 0 6 -9 10 -7 14 8 6 23 -15 35 -33 18 -10 -9 -11 -9 -6 0 4 7 0 23 -8
35 -21 30 -20 33 9 46 17 8 25 20 25 36 0 13 7 29 15 36 8 7 12 16 10 21 -3 4
4 7 15 6 11 -1 20 -5 20 -10 0 -4 4 -6 9 -3 5 4 11 0 14 -6 3 -8 9 -3 15 12 6
14 11 19 11 11 1 -12 4 -11 19 1 9 9 23 13 31 10 9 -3 12 0 9 10 -3 8 5 24 18
37 13 13 22 26 20 30 -3 4 9 6 25 5 19 -1 32 3 36 12 3 8 14 19 24 25 15 8 19
6 19 -6 0 -10 -5 -13 -12 -9 -7 4 -10 4 -6 -1 4 -4 3 -14 -3 -22 -21 -24 0
-13 26 15 14 15 23 20 20 12 -3 -8 -7 -30 -9 -49 l-4 -35 19 25 c21 28 25 43
7 33 -7 -4 -5 2 5 13 9 11 14 23 10 28 -5 4 -3 5 3 2 7 -4 14 0 18 8 3 9 12
12 21 9 12 -5 13 -10 6 -17z m713 -2015 c-4 -12 9 -26 48 -49 48 -28 73 -38
160 -57 15 -3 47 -24 72 -45 25 -22 55 -42 66 -46 16 -5 19 -12 14 -28 -4 -12
-9 -33 -10 -47 -10 -75 -22 -128 -33 -148 -6 -12 -9 -27 -6 -32 4 -6 0 -13 -8
-16 -21 -8 -83 26 -138 74 -35 31 -61 44 -112 56 -37 9 -82 22 -100 30 -33 13
-33 13 -55 -25 -21 -36 -42 -51 -42 -30 0 12 100 322 109 336 3 6 4 18 3 28
-2 11 3 17 16 17 14 0 19 -5 16 -18z m-1708 -3803 c-19 -134 -40 -287 -46
-339 -14 -114 -35 -226 -57 -300 -16 -53 -17 -54 -24 -25 -3 17 -7 50 -8 74
-1 34 86 493 150 790 24 112 18 34 -15 -200z"/>
<path d="M5496 8183 c-4 -15 -8 -38 -11 -51 -2 -13 -6 -31 -9 -40 -3 -9 -8
-28 -11 -42 -2 -14 -7 -36 -10 -50 -5 -20 1 -29 29 -48 38 -26 110 -40 120
-24 3 5 -19 37 -49 71 -30 34 -55 66 -55 71 0 13 25 18 115 25 l80 7 53 -66
c28 -36 52 -67 52 -70 0 -6 -51 -19 -90 -22 -87 -8 -101 -23 -45 -50 19 -9 35
-20 35 -24 0 -12 71 -80 84 -80 16 0 44 76 52 145 3 33 11 68 16 78 7 14 3 19
-18 28 -15 5 -44 25 -65 43 -39 36 -42 37 -129 56 -63 14 -86 25 -117 52 l-21
20 -6 -29z"/>
<path d="M2667 13563 c-15 -2 -25 -9 -22 -14 6 -9 -34 -13 -82 -9 -12 1 -30
-4 -40 -10 -15 -9 -11 -10 17 -5 32 5 33 4 12 -7 -13 -6 -21 -17 -18 -23 2 -6
-3 -11 -13 -11 -52 -1 -81 -5 -81 -13 0 -5 8 -7 19 -4 10 3 22 0 25 -5 4 -7
-10 -9 -39 -6 -27 3 -45 1 -45 -5 0 -6 8 -8 18 -4 11 4 7 -4 -12 -25 l-29 -32
36 5 c32 4 37 2 37 -15 0 -23 3 -24 49 -10 31 9 64 1 81 -19 10 -12 190 -70
190 -61 0 5 -8 11 -17 13 -10 3 0 5 22 5 22 0 32 -2 23 -5 -56 -14 18 -35 83
-23 21 4 36 4 34 -1 -3 -4 22 -6 55 -4 33 2 62 -1 65 -5 3 -5 12 -7 20 -3 8 3
15 0 15 -6 0 -6 10 -11 21 -11 19 0 20 -2 8 -17 -12 -15 -12 -16 4 -10 9 3 17
2 17 -3 0 -6 -11 -10 -24 -10 -13 0 -41 -6 -62 -14 -22 -7 -84 -21 -139 -31
-159 -27 -250 -62 -308 -119 -20 -20 -37 -45 -37 -58 0 -12 -8 -30 -17 -41
-18 -19 -17 -19 21 -3 49 20 46 21 46 -11 1 -27 1 -27 15 -9 13 17 19 18 52 8
43 -13 103 -13 103 0 0 4 -7 8 -15 8 -8 0 -15 4 -15 9 0 5 -9 11 -20 14 -42
11 -8 70 60 106 22 12 43 21 45 21 3 0 5 -19 5 -42 0 -25 8 -57 20 -75 16 -28
17 -33 4 -33 -12 0 -12 -3 -2 -14 9 -10 17 -11 30 -3 9 6 15 13 13 16 -10 10
32 29 53 24 24 -6 158 24 180 41 10 7 12 4 8 -15 -14 -72 -15 -86 -1 -86 8 0
17 7 19 14 4 9 1 11 -5 7 -7 -4 -10 -1 -7 7 3 8 11 13 17 11 6 -1 11 3 11 8 0
6 11 8 26 4 18 -5 25 -3 21 3 -8 13 42 24 70 17 13 -4 20 0 20 10 0 9 -5 16
-11 15 -6 -1 -30 -1 -54 0 -39 1 -43 3 -40 24 2 18 8 21 33 19 l30 -3 -22 16
c-25 17 -31 45 -10 45 6 -1 27 -14 46 -30 26 -22 38 -27 52 -20 10 6 30 10 44
10 20 0 26 4 22 15 -4 8 -2 17 4 21 6 4 4 13 -7 25 -10 11 -12 19 -6 19 22 0
12 18 -13 24 -22 6 -65 -10 -65 -24 0 -4 12 -11 28 -17 27 -11 27 -11 5 -18
-13 -4 -23 -11 -23 -16 0 -12 -69 19 -94 43 -20 19 -20 20 -1 14 11 -3 26 -2
34 3 9 6 7 9 -10 9 -13 1 -33 3 -44 6 -11 2 -26 5 -32 5 -20 1 17 41 52 56 25
11 31 11 41 -3 11 -14 13 -14 27 0 9 9 13 19 9 23 -4 5 0 4 8 -1 8 -4 21 -9
29 -11 8 -1 26 -5 39 -8 33 -8 24 17 -9 26 -13 4 -20 7 -15 8 16 2 -17 31 -35
31 -11 0 -19 5 -19 10 0 6 -6 10 -14 10 -8 0 -18 5 -22 12 -5 7 -2 9 7 4 8 -4
3 2 -11 13 -28 23 -21 27 13 9 20 -10 21 -10 8 6 -21 25 -51 39 -94 42 -29 3
-47 13 -78 45 -24 25 -39 35 -39 25 0 -8 10 -22 22 -30 12 -9 18 -16 13 -16
-6 0 -3 -5 5 -10 8 -5 15 -15 15 -21 0 -7 6 -14 14 -17 9 -3 11 0 6 8 -10 16
47 -14 63 -33 10 -12 9 -16 -2 -20 -8 -3 -19 0 -25 7 -6 7 -29 19 -51 26 -21
7 -37 17 -35 21 3 4 1 10 -5 14 -5 3 -10 -3 -10 -14 0 -16 -6 -21 -26 -21 -15
0 -23 4 -19 11 4 6 13 8 21 5 8 -3 14 -1 14 4 0 6 -6 10 -14 10 -8 0 -28 11
-43 25 l-28 24 31 1 c51 0 38 27 -18 40 -66 14 -75 13 -52 -6 18 -15 17 -15
-15 -10 -18 3 -43 6 -55 7 -14 0 -16 2 -6 6 8 4 21 12 29 20 11 12 9 13 -15 7
-16 -4 -39 -11 -52 -15 -30 -11 -29 -12 -29 6 0 8 4 15 9 15 5 0 7 4 4 9 -3 4
-17 6 -31 3 -25 -4 -35 12 -12 22 6 3 -7 2 -30 -1 -45 -6 -63 12 -20 20 20 4
20 4 -3 4 -14 0 -37 -2 -53 -4z"/>
<path d="M2159 13143 c-50 -54 -76 -88 -61 -79 15 9 15 1 2 -25 -6 -10 -17
-19 -25 -19 -8 0 -18 -15 -23 -32 -4 -18 -15 -33 -23 -33 -16 0 -35 -75 -25
-102 11 -26 25 2 27 52 l2 40 10 -37 c6 -21 13 -38 16 -38 3 0 21 23 40 50 46
68 69 85 37 28 -14 -25 -22 -48 -19 -52 3 -3 -1 -14 -9 -23 -29 -34 -32 -46
-9 -31 12 7 24 21 27 30 3 10 10 18 16 18 6 0 4 -9 -4 -22 -41 -65 -60 -99
-57 -103 2 -2 22 18 44 43 33 39 40 54 43 96 4 68 7 89 14 102 4 6 9 39 12 75
2 35 8 72 11 82 12 28 -9 19 -46 -20z"/>
<path d="M3092 12850 c-35 -17 -68 -27 -74 -24 -6 4 -8 2 -4 -4 4 -6 -7 -13
-26 -17 -18 -4 -37 -11 -43 -15 -5 -4 -43 -17 -83 -30 -84 -25 -89 -37 -10
-21 30 7 62 9 71 5 10 -3 42 -3 73 1 41 5 54 10 50 20 -3 10 11 17 52 26 67
15 71 17 52 29 -9 6 -10 10 -3 10 6 0 15 -4 18 -10 3 -5 14 -10 23 -10 15 1
15 2 -2 15 -11 8 -29 15 -40 15 -17 0 -16 3 9 16 72 37 19 32 -63 -6z"/>
<path d="M5210 12389 c0 -5 4 -8 9 -4 5 3 12 1 16 -5 3 -6 -1 -13 -9 -16 -9
-3 -13 -11 -10 -18 3 -6 -1 -3 -9 7 -20 24 -30 21 -23 -7 4 -18 1 -25 -14 -29
-13 -3 -20 0 -20 10 0 8 -4 11 -10 8 -5 -3 -7 0 -4 9 8 22 -6 42 -17 25 -10
-17 -47 -20 -72 -7 -16 8 -17 7 -7 -11 6 -12 8 -26 5 -31 -3 -6 -2 -10 4 -10
5 0 13 5 16 10 3 6 14 10 23 9 14 0 13 -2 -3 -9 -12 -4 -27 -15 -34 -24 -14
-17 -36 -12 -25 6 4 7 2 8 -5 4 -8 -5 -6 -15 9 -36 11 -15 20 -36 20 -47 0
-13 2 -15 9 -5 7 11 9 11 14 -1 7 -20 -17 -29 -33 -14 -10 9 -11 9 -6 0 3 -6
0 -13 -6 -16 -10 -3 -8 -9 5 -24 9 -11 17 -27 17 -36 0 -9 5 -17 12 -17 6 0 9
3 6 6 -4 3 2 14 13 25 21 21 27 55 7 43 -7 -4 -8 -3 -4 4 11 19 26 14 26 -9 0
-13 4 -18 13 -14 6 4 2 -2 -9 -12 -20 -18 -20 -22 -9 -50 7 -17 10 -35 7 -39
-4 -5 1 -2 11 6 18 13 18 12 1 -23 -21 -44 -35 -39 -27 10 4 26 3 34 -5 29 -7
-4 -12 -2 -12 5 0 6 -8 9 -20 6 -11 -3 -18 -1 -14 4 3 5 1 9 -5 9 -5 0 -13 -5
-16 -10 -5 -8 -11 -8 -20 0 -11 9 -12 7 -8 -8 3 -13 12 -18 30 -16 18 2 23 -1
19 -12 -6 -16 10 -19 19 -4 7 12 25 4 25 -11 0 -6 -4 -8 -9 -5 -5 3 -12 -1
-15 -9 -3 -9 1 -18 9 -22 12 -4 13 -8 4 -20 -7 -8 -8 -13 -3 -12 5 1 18 1 29
0 14 -1 16 -4 8 -12 -9 -9 -19 -8 -39 6 -26 17 -27 17 -21 -4 3 -11 1 -24 -4
-27 -14 -9 -10 -27 5 -21 9 4 14 -2 14 -16 0 -37 6 -51 27 -62 17 -9 22 -7 32
13 15 28 9 42 -17 42 -10 0 -22 5 -26 11 -4 7 0 9 13 5 25 -8 50 52 34 83 -14
25 -14 34 -1 26 6 -3 10 3 10 14 0 11 5 23 10 26 6 3 10 1 10 -4 0 -6 4 -11 8
-11 5 0 8 15 7 34 -2 32 -1 34 20 26 19 -7 22 -6 18 10 -3 10 1 21 8 25 7 5
10 4 6 -2 -4 -6 -1 -16 7 -22 20 -16 28 9 11 33 -8 10 -11 24 -8 32 3 8 1 14
-4 14 -5 0 -10 7 -10 15 0 19 16 19 23 0 4 -8 10 -13 14 -10 5 3 11 1 15 -5 3
-5 1 -10 -5 -10 -6 0 -8 -5 -5 -10 4 -6 11 -8 16 -5 5 4 9 0 9 -9 0 -8 -6 -16
-12 -19 -7 -3 -4 -5 8 -4 15 1 21 7 20 22 -1 15 5 20 22 19 12 0 22 3 22 8 0
4 -5 8 -11 8 -5 0 -7 4 -4 10 3 6 -1 7 -9 4 -17 -6 -21 8 -17 54 1 16 -2 21
-9 17 -9 -5 -9 -2 -2 11 5 11 7 26 5 34 -4 13 -3 13 6 0 8 -11 11 -12 11 -2 0
7 4 11 9 8 5 -3 11 3 14 14 3 11 2 18 -3 15 -4 -3 -11 3 -15 13 -6 16 -7 16
-16 -1 -10 -16 -12 -16 -29 5 -11 13 -19 17 -20 10 0 -9 -5 -10 -19 -2 -25 13
-31 13 -31 -1z"/>
<path d="M3288 11567 c-9 -6 -7 -7 7 -3 19 6 19 5 1 -8 -13 -11 -25 -12 -43
-5 -13 5 -29 9 -34 9 -16 0 -10 -18 9 -23 11 -3 8 -5 -8 -6 -15 0 -32 5 -39
12 -11 10 -12 9 -6 -2 6 -11 -1 -13 -34 -9 -22 2 -41 0 -41 -5 0 -5 -11 -7
-24 -5 -17 3 -40 -8 -82 -39 -31 -23 -51 -43 -44 -43 9 0 6 -6 -8 -16 -35 -24
-26 -34 14 -14 20 10 42 16 50 13 8 -3 14 1 14 11 0 22 64 15 159 -18 40 -14
89 -26 108 -26 30 0 34 3 31 23 -2 15 -10 22 -26 22 -12 0 -27 6 -31 14 -11
17 -3 43 10 35 5 -3 9 5 9 17 0 12 3 20 6 17 3 -4 21 0 40 8 24 10 59 13 119
10 47 -3 83 -1 81 3 -6 9 -56 14 -142 15 -41 0 -60 4 -57 12 5 13 -21 14 -39
1z"/>
<path d="M3091 9533 c32 -60 209 -241 324 -329 66 -51 217 -149 270 -176 89
-45 99 -44 171 7 35 25 64 48 64 51 0 3 -5 2 -10 -1 -6 -4 -17 -1 -25 5 -9 8
-15 8 -15 2 0 -6 5 -12 11 -14 7 -2 1 -11 -12 -19 -30 -20 -126 -32 -135 -18
-3 6 -13 8 -21 5 -21 -8 -68 25 -51 35 9 6 4 9 -14 9 -15 0 -30 5 -33 10 -4 6
-11 8 -16 5 -5 -4 -9 -1 -9 4 0 6 -7 11 -15 11 -8 0 -15 4 -15 9 0 5 -9 13
-21 16 -13 4 -18 12 -15 21 3 9 0 14 -7 12 -14 -3 -55 18 -77 39 -8 8 -34 28
-58 44 -23 17 -39 36 -35 41 3 6 1 8 -4 5 -11 -7 -195 168 -247 233 l-27 35
22 -42z"/>
<path d="M2284 9409 c-16 -18 -16 -23 -4 -42 12 -21 12 -21 -5 -7 -10 8 -20
14 -22 12 -3 -2 -8 0 -11 4 -4 4 -1 4 6 0 6 -4 12 -3 12 3 0 5 3 16 6 25 4 10
1 16 -7 16 -7 0 -9 -3 -6 -7 4 -3 0 -15 -10 -25 -9 -10 -13 -18 -9 -18 4 0 -2
-12 -13 -26 -12 -15 -21 -32 -21 -40 0 -7 -6 -15 -12 -17 -10 -4 -10 -6 0 -6
6 -1 12 -6 12 -12 0 -5 -5 -7 -12 -3 -6 4 -9 3 -6 -2 3 -5 2 -18 -3 -29 -6
-16 -8 -17 -8 -3 -1 22 -17 32 -27 17 -4 -8 -3 -9 4 -5 8 5 12 -2 12 -19 0
-18 4 -24 13 -19 6 4 8 3 4 -1 -13 -15 -36 -14 -30 1 2 7 1 19 -3 26 -5 7 -7
25 -5 40 1 14 -3 29 -10 34 -8 4 -10 3 -5 -4 4 -7 2 -12 -5 -12 -8 0 -8 -4 -1
-13 7 -8 6 -17 -3 -30 -11 -16 -13 -16 -19 -2 -4 10 -11 13 -18 8 -22 -13 -37
-12 -31 4 5 12 7 12 14 1 9 -14 12 -5 10 24 -1 9 3 20 10 24 9 5 10 1 7 -14
-4 -12 -3 -24 1 -26 4 -3 8 6 9 19 6 75 -74 1 -108 -99 -26 -79 -45 -192 -65
-378 -16 -160 -19 -255 -3 -149 5 39 15 69 25 76 10 8 14 20 10 34 -3 11 -1
21 4 21 11 0 12 -43 2 -54 -4 -3 -8 -13 -9 -22 -2 -11 1 -12 10 -5 7 6 15 9
17 7 2 -2 4 23 3 56 0 40 4 62 13 65 7 3 10 9 7 15 -3 5 -13 4 -22 -4 -16 -12
-16 -11 -2 6 17 22 22 74 9 96 -8 12 -9 11 -7 -5 2 -11 -2 -19 -9 -18 -7 2
-11 -9 -11 -28 1 -17 4 -25 8 -19 4 7 9 8 12 4 2 -5 -7 -20 -20 -34 -14 -14
-21 -18 -17 -10 5 8 8 30 7 48 -3 42 23 88 42 73 8 -7 12 -5 13 10 1 11 -2 17
-8 14 -12 -8 11 46 28 65 11 12 13 12 13 -5 0 -22 10 -14 14 12 2 12 11 17 24
16 13 -2 26 5 32 17 6 11 15 20 21 20 6 0 7 -5 3 -12 -5 -7 -3 -8 5 -4 7 5 10
14 7 22 -3 7 -1 16 5 19 5 4 7 10 4 15 -3 4 5 6 17 2 18 -4 20 -2 16 16 -4 12
-1 25 4 29 6 3 8 1 4 -5 -3 -6 -2 -13 3 -16 5 -3 8 15 7 41 0 29 4 48 12 50 6
3 12 0 12 -7 0 -6 -4 -9 -9 -6 -5 4 -7 -4 -3 -16 5 -21 5 -21 15 3 5 13 10 31
12 39 2 8 4 17 5 20 1 3 2 9 1 14 -1 5 6 5 16 2 9 -4 14 -4 10 0 -4 4 0 16 10
26 9 10 13 18 8 18 -4 0 -3 6 3 13 9 10 14 57 6 57 0 0 -9 -9 -20 -21z"/>
<path d="M1150 8879 c-27 -15 -30 -18 -10 -14 l25 6 -25 -22 c-14 -12 -24 -26
-22 -30 1 -5 -2 -9 -7 -9 -5 0 -13 -9 -16 -20 -4 -11 -10 -18 -15 -15 -5 3
-12 -5 -16 -17 -3 -12 -15 -31 -25 -42 -11 -11 -17 -26 -15 -33 3 -7 2 -13 -3
-13 -13 0 -21 -39 -9 -46 5 -3 7 -12 4 -20 -3 -8 1 -14 9 -14 8 0 15 -5 15
-10 0 -7 -6 -7 -20 0 -10 6 -18 16 -16 23 1 6 1 9 -1 4 -3 -4 -10 -4 -16 0 -8
5 -8 2 0 -9 17 -19 4 -31 -16 -15 -9 7 -8 2 4 -15 23 -32 42 -42 42 -22 0 7
-4 11 -8 8 -4 -2 -11 1 -15 7 -5 9 1 10 23 6 30 -6 30 -5 48 61 10 37 24 80
32 95 8 16 12 36 8 45 -3 9 -3 13 1 9 4 -4 13 1 19 11 20 29 67 112 63 112 -1
-1 -19 -10 -38 -21z"/>
<path d="M241 8163 c-20 -39 -81 -253 -96 -338 -21 -124 -32 -576 -16 -715 6
-58 14 -211 17 -340 3 -129 9 -372 14 -539 6 -167 10 -408 10 -535 0 -262 32
-878 56 -1066 34 -275 86 -603 120 -755 92 -418 229 -873 314 -1045 24 -48 50
-130 74 -230 34 -139 213 -676 223 -666 2 2 -8 50 -22 106 -25 98 -71 307
-135 612 -27 126 -45 243 -115 748 -14 102 -32 286 -40 410 -17 264 -29 398
-56 650 -11 102 -24 244 -29 315 -6 72 -15 168 -20 215 -6 47 -15 144 -20 215
-6 72 -17 195 -25 275 -8 80 -24 251 -35 380 -31 378 -68 660 -134 1040 -39
225 -51 357 -70 745 -14 295 -14 475 -1 513 9 26 0 30 -14 5z"/>
<path d="M2443 5210 c-13 -5 -23 -14 -23 -20 0 -6 -4 -8 -10 -5 -5 3 -10 -2
-10 -12 0 -15 -2 -16 -10 -3 -5 8 -10 11 -10 5 0 -5 -7 -1 -15 9 -8 11 -15 16
-15 11 0 -5 8 -17 18 -28 10 -12 11 -17 3 -12 -11 7 -13 2 -8 -24 l7 -32 -23
27 c-21 24 -23 24 -23 6 0 -11 4 -18 8 -16 5 3 11 -2 14 -11 4 -10 13 -14 23
-10 9 4 34 8 56 11 22 2 41 8 43 14 2 6 9 7 15 3 18 -11 38 -12 31 -2 -3 5
-10 7 -15 3 -6 -3 -5 3 2 14 11 17 16 19 28 9 12 -10 13 -9 6 2 -5 9 -2 18 9
27 22 15 6 27 -35 26 -16 0 -29 4 -29 9 0 11 -8 11 -37 -1z"/>
<path d="M2665 5020 c-4 -6 -11 -8 -16 -5 -5 3 -6 0 -4 -7 4 -9 -3 -14 -20
-16 -14 -1 -25 3 -25 8 0 20 -25 4 -37 -23 -12 -27 -39 -34 -54 -13 -9 11 -31
-3 -24 -15 3 -5 -2 -6 -11 -2 -12 4 -15 3 -10 -5 4 -7 2 -12 -3 -12 -6 0 -11
6 -12 13 0 6 -4 3 -9 -8 -5 -11 -9 -14 -9 -7 -1 6 -6 12 -12 12 -6 0 -8 -7 -5
-17 4 -10 4 -14 0 -10 -4 4 -17 -1 -28 -10 -21 -18 -21 -18 -3 4 12 14 15 23
8 28 -6 3 -12 4 -12 1 -8 -37 -22 -57 -34 -52 -8 3 -11 -2 -8 -14 3 -11 11
-16 19 -13 8 3 22 -3 30 -13 9 -11 12 -13 9 -6 -8 15 27 45 35 31 3 -4 16 -10
29 -12 12 -2 27 -10 31 -18 5 -8 15 -14 22 -14 7 -1 12 -7 10 -14 -1 -7 2 -10
7 -7 5 4 8 15 6 26 -4 23 -1 24 26 10 11 -6 19 -7 18 -3 -4 22 2 32 16 27 12
-5 14 -2 8 12 -6 16 -5 17 9 6 10 -8 19 -9 22 -3 4 5 2 12 -4 16 -15 9 -12 25
3 19 7 -2 32 2 56 11 24 8 47 13 51 10 4 -2 5 8 2 23 -5 26 -4 26 15 10 24
-22 32 -23 29 -2 -1 9 -11 21 -22 27 -18 11 -27 13 -75 16 -11 0 -17 6 -14 11
3 6 4 10 1 10 -3 0 -8 -5 -11 -10z"/>
<path d="M2117 4570 c3 -11 1 -20 -4 -20 -5 0 -17 -19 -27 -42 -32 -78 -43
-103 -64 -148 -51 -112 -71 -158 -88 -205 -10 -27 -25 -61 -33 -74 -15 -24
-15 -24 11 -18 17 5 28 3 32 -6 3 -6 3 -1 0 12 -5 19 -3 23 10 18 8 -3 18 -2
21 4 4 5 2 8 -3 7 -6 -2 -12 1 -13 6 -2 5 6 10 18 11 12 1 20 -2 18 -6 -3 -4
10 -2 29 3 30 10 33 13 23 29 -13 21 -37 26 -37 8 0 -6 -6 -9 -14 -6 -8 3 -17
1 -19 -6 -2 -7 -8 -8 -13 -4 -5 4 -4 11 2 15 6 4 14 14 17 22 4 12 6 12 6 -2
1 -14 5 -14 26 -5 14 7 25 15 25 20 0 4 15 7 33 8 17 0 25 3 17 6 -25 10 -30
27 -12 42 16 13 16 13 0 7 -51 -18 -54 -18 -38 -4 8 7 16 20 18 28 2 8 8 17
13 18 5 2 9 8 9 13 0 6 -6 7 -12 3 -8 -5 -8 -1 1 10 8 10 16 25 17 34 10 80
11 103 3 107 -7 5 0 25 19 55 4 7 22 -23 22 -37 0 -7 -4 -13 -10 -13 -5 0 -7
8 -3 18 5 13 3 14 -7 5 -14 -13 -6 -33 14 -33 12 0 20 -18 80 -175 44 -115 59
-140 85 -143 20 -3 23 -1 16 15 -4 10 -12 32 -17 48 -6 17 -14 35 -18 40 -4 6
-10 23 -14 39 -4 15 -16 47 -26 70 -24 50 -70 173 -77 204 -3 12 -13 27 -23
32 -15 8 -17 6 -13 -10z"/>
<path d="M2270 4050 c0 -5 5 -10 11 -10 5 0 8 -4 5 -9 -4 -5 -1 -11 5 -13 16
-5 -1 -39 -19 -36 -8 2 -17 -3 -19 -9 -3 -8 3 -13 14 -13 10 0 29 -7 41 -16
25 -17 30 -3 6 20 -14 15 -14 17 0 22 9 3 16 16 16 28 1 20 2 20 14 3 7 -9 20
-15 27 -12 10 4 14 -4 14 -27 0 -25 -5 -33 -17 -32 -9 1 -19 -5 -22 -12 -3 -8
-1 -14 5 -14 6 0 29 -20 51 -45 44 -49 64 -57 55 -24 -4 15 1 22 19 30 33 12
34 12 34 -7 0 -8 4 -13 9 -9 19 11 20 -13 2 -34 -14 -16 -26 -20 -45 -15 -26
6 -26 6 -11 -22 8 -16 15 -35 15 -42 0 -22 24 -7 30 19 4 17 8 20 14 11 4 -7
14 -11 22 -8 8 3 14 -1 14 -8 0 -8 2 -20 5 -28 3 -7 -5 -18 -19 -24 -18 -9
-26 -8 -35 5 -10 13 -11 12 -6 -9 17 -66 17 -73 4 -82 -11 -8 -11 -9 2 -5 13
4 18 -2 21 -29 2 -20 1 -37 -3 -39 -3 -3 -4 -16 -1 -30 3 -19 0 -25 -13 -25
-15 0 -15 -1 -1 -16 9 -8 16 -21 15 -27 0 -9 -2 -8 -6 1 -2 6 -9 12 -14 12 -6
0 -6 -7 0 -18 6 -10 8 -28 5 -39 -6 -23 23 -40 40 -23 15 15 26 12 20 -5 -4
-8 -1 -22 6 -30 13 -15 4 -39 -11 -30 -5 4 -12 -1 -15 -9 -8 -20 -24 -21 -24
-1 0 8 -9 15 -21 15 -11 0 -17 -4 -14 -10 3 -5 1 -19 -5 -31 -13 -23 1 -51 14
-30 10 16 26 13 20 -3 -3 -8 -1 -17 5 -21 16 -9 13 -25 -4 -25 -7 0 -18 -8
-24 -17 -9 -17 -10 -17 -16 0 -11 28 -41 20 -64 -18 -11 -19 -25 -35 -30 -35
-6 0 -8 -7 -4 -16 3 -9 9 -12 12 -7 3 5 13 12 22 15 11 4 15 0 15 -15 -1 -32
32 -34 40 -3 3 14 10 26 16 26 5 0 7 -10 3 -22 -5 -18 -4 -19 4 -7 5 8 11 27
13 42 2 15 11 33 21 39 9 7 18 25 21 40 6 35 15 50 26 43 4 -3 6 4 3 16 -3 12
-1 24 5 28 6 3 13 29 16 56 4 28 9 63 12 79 4 19 3 26 -5 22 -6 -4 -11 -17
-11 -28 0 -19 -2 -20 -17 -6 -10 9 -22 14 -28 12 -20 -8 -9 43 13 60 19 15 22
15 22 1 0 -8 8 -15 18 -15 13 0 17 8 17 35 0 45 -22 61 -49 37 -18 -16 -19
-16 -13 1 4 11 1 17 -9 17 -11 0 -14 6 -10 16 3 9 6 22 6 30 0 8 7 14 15 14 8
0 15 -4 15 -10 0 -5 7 -7 15 -4 11 5 13 2 9 -10 -3 -9 -1 -16 6 -16 29 0 -22
189 -71 264 -45 68 -139 148 -197 169 -57 20 -72 21 -72 7z"/>
<path d="M2557 3961 c-16 -6 -14 -12 20 -46 21 -21 30 -36 20 -32 -17 6 -17 6
0 -17 10 -13 22 -22 27 -19 5 3 4 -2 -2 -12 -7 -14 -5 -23 8 -37 10 -11 16
-29 13 -41 l-5 -22 21 23 c11 13 23 22 26 21 4 -1 19 8 34 19 27 19 33 44 18
69 -4 6 0 13 8 17 8 3 17 0 21 -6 4 -7 3 -8 -4 -4 -7 4 -12 3 -12 -3 0 -19 19
-21 30 -4 11 17 11 17 6 1 -3 -12 0 -18 10 -18 8 0 13 4 10 9 -4 5 9 5 30 1
29 -7 34 -5 30 6 -3 8 0 14 6 14 6 0 19 7 28 15 16 15 18 14 22 -10 3 -14 1
-28 -4 -31 -4 -3 -6 -10 -3 -15 4 -5 -1 -9 -10 -9 -12 0 -15 6 -10 23 l6 22
-18 -22 c-12 -16 -25 -21 -39 -17 -12 3 -25 1 -29 -6 -5 -8 5 -10 35 -6 38 5
41 3 38 -17 -2 -12 -9 -21 -15 -20 -7 2 -15 -6 -18 -17 -4 -11 -10 -20 -15
-20 -4 0 -22 -19 -39 -42 -23 -31 -28 -44 -18 -50 8 -6 6 -8 -8 -6 -22 4 -55
-20 -55 -39 0 -12 -37 -29 -55 -25 -5 1 -1 -5 9 -13 11 -8 15 -15 10 -15 -5 0
-10 -10 -11 -22 -1 -11 -7 -24 -14 -28 -8 -6 -8 -9 0 -15 12 -7 71 47 71 65 0
5 7 10 16 10 11 0 15 6 11 20 -3 10 -2 19 2 18 24 -3 41 4 41 17 0 8 9 19 20
25 11 6 20 17 20 25 0 8 5 15 10 15 6 0 15 12 20 26 6 14 15 22 21 19 6 -4 13
2 16 14 3 11 14 23 24 26 10 4 19 12 19 20 0 7 27 42 60 77 33 35 60 66 60 69
0 3 -33 5 -72 5 -40 -1 -81 2 -92 7 -12 6 -21 5 -26 -3 -5 -8 -13 -9 -21 -4
-8 5 -63 9 -124 10 -60 1 -121 4 -135 7 -14 2 -33 1 -43 -2z"/>
<path d="M2126 3928 c-10 -6 -39 -12 -63 -14 -52 -4 -66 -11 -59 -29 3 -9 -2
-13 -13 -12 -17 1 -141 -80 -141 -93 0 -4 -10 -18 -23 -32 -30 -32 -110 -195
-123 -250 -1 -5 -3 -9 -4 -10 -3 -3 -5 -15 -15 -83 -3 -21 -8 -41 -10 -43 -2
-3 0 -12 4 -21 5 -9 10 -36 12 -61 1 -25 5 -49 8 -55 3 -5 7 -17 8 -26 5 -30
53 -117 68 -123 8 -3 15 -10 15 -17 0 -18 42 -48 78 -55 17 -3 32 -10 32 -15
0 -4 17 -11 38 -15 20 -4 45 -11 56 -16 12 -7 16 -7 12 0 -3 5 19 14 50 21 31
6 71 20 90 32 18 11 39 17 45 13 8 -4 9 -3 5 4 -4 7 -4 17 0 23 5 8 8 8 14 0
7 -13 70 39 70 58 0 13 35 33 43 24 3 -3 9 6 13 20 3 15 14 29 23 32 9 3 17
15 18 27 2 26 30 50 47 41 7 -4 6 -1 -1 7 -9 10 -8 18 4 37 9 13 17 38 19 55
2 18 10 35 17 40 9 6 9 8 -1 8 -10 0 -9 5 2 23 19 31 28 75 16 82 -6 4 -7 13
-1 23 5 9 5 41 2 70 -5 34 -4 52 3 52 6 0 4 5 -4 10 -8 5 -15 13 -16 17 0 4
-11 31 -24 58 -12 28 -23 55 -23 62 0 6 -6 9 -13 6 -7 -2 -15 4 -18 14 -10 28
-130 101 -181 109 -11 2 -29 6 -40 8 -11 3 -28 0 -39 -6z"/>
<path d="M3335 3832 c-6 -4 -16 -20 -23 -36 -10 -22 -10 -32 -1 -42 10 -12 8
-13 -6 -7 -14 5 -17 3 -12 -10 3 -8 -1 -21 -9 -28 -8 -7 -12 -19 -9 -26 3 -9
0 -13 -7 -10 -7 2 -12 9 -11 15 4 16 -24 3 -31 -14 -3 -8 -1 -14 3 -14 5 0 11
6 14 13 2 6 8 -1 12 -17 5 -19 4 -31 -5 -36 -9 -6 -8 -10 6 -18 10 -6 17 -13
14 -15 -3 -3 -13 1 -23 8 -15 11 -16 17 -7 34 8 17 8 21 -4 21 -7 0 -17 -12
-20 -26 -5 -17 -12 -24 -21 -20 -20 7 -19 -6 3 -26 9 -9 23 -24 30 -32 7 -9
18 -16 25 -16 7 1 2 9 -10 19 -13 11 -23 24 -23 30 0 15 9 14 27 -5 13 -13 17
-13 24 -2 6 9 9 4 9 -16 0 -20 4 -27 14 -23 8 3 20 -1 27 -9 10 -13 10 -17 -2
-25 -8 -5 -9 -9 -2 -9 6 0 16 -12 21 -27 7 -19 11 -22 11 -10 1 21 21 13 21
-9 0 -8 -7 -14 -17 -14 -9 0 -13 -3 -10 -6 10 -10 -12 -44 -29 -44 -11 0 -13
-6 -9 -20 4 -11 2 -20 -4 -20 -6 0 -11 5 -11 10 0 6 -5 10 -11 10 -5 0 -7 -5
-4 -10 4 -6 -2 -18 -12 -28 -11 -9 -14 -13 -7 -9 7 4 15 3 19 -3 3 -5 -1 -11
-9 -11 -9 -1 -20 -3 -26 -4 -5 -1 -13 -3 -16 -4 -4 0 -1 -7 5 -15 9 -11 6 -15
-14 -20 -14 -4 -25 -13 -25 -21 0 -8 -5 -15 -11 -15 -6 0 -9 -6 -6 -14 8 -20
-4 -28 -20 -15 -7 6 -13 7 -13 3 0 -5 10 -15 21 -23 15 -9 18 -15 10 -20 -8
-5 -7 -12 4 -27 8 -10 15 -14 15 -7 0 7 6 10 14 7 21 -8 26 9 9 31 -13 16 -15
17 -10 3 4 -10 2 -18 -3 -18 -14 0 -12 23 2 57 14 32 130 149 156 157 20 7 45
63 32 71 -5 3 -7 12 -4 20 6 15 -19 48 -29 39 -2 -3 -7 6 -11 20 -3 14 -15 30
-26 36 -35 19 -48 59 -36 113 6 27 14 46 17 42 4 -3 12 8 19 24 6 16 20 37 31
47 10 9 19 23 19 31 0 9 5 11 13 7 6 -4 9 -4 5 1 -4 4 -4 13 2 19 10 14 -38
21 -55 8z"/>
<path d="M1530 3775 c-47 -19 -97 -37 -111 -40 -14 -2 -47 -16 -73 -30 -28
-15 -56 -23 -67 -20 -12 4 -21 1 -25 -8 -3 -8 -22 -18 -42 -22 -32 -6 -34 -8
-17 -17 10 -6 39 -34 64 -62 25 -28 61 -66 79 -84 17 -19 32 -38 32 -43 0 -5
11 -15 23 -24 13 -8 38 -35 56 -60 33 -47 73 -65 51 -24 -7 11 -9 27 -6 36 4
8 -6 26 -23 43 -17 17 -24 31 -17 34 6 2 1 5 -11 5 -13 1 -23 6 -23 12 0 5
-22 33 -50 61 -27 28 -50 54 -50 59 0 5 -13 15 -30 24 -28 15 -42 45 -20 45 6
0 10 -6 10 -14 0 -18 31 -29 54 -20 20 8 21 24 0 24 -8 0 -12 -4 -9 -10 3 -5
-1 -10 -9 -10 -8 0 -17 4 -20 9 -6 9 73 35 82 27 3 -3 -3 -6 -14 -7 -10 0 -14
-3 -8 -5 12 -5 155 38 209 63 l30 14 -35 -5 c-32 -5 -32 -4 8 9 39 13 81 48
82 68 0 14 -36 6 -120 -28z"/>
<path d="M1564 3203 c4 -32 12 -62 17 -68 8 -7 9 -3 4 13 -3 12 -2 22 4 22 5
0 17 3 26 7 15 5 16 3 7 -14 -10 -18 -8 -20 16 -16 25 4 26 3 10 -10 -10 -8
-18 -22 -18 -31 0 -9 -7 -16 -15 -16 -8 0 -15 7 -15 16 0 8 -4 12 -10 9 -5 -3
0 -24 12 -50 24 -48 41 -59 36 -22 -2 15 2 22 14 22 9 0 20 4 24 8 13 13 24 7
24 -13 0 -11 5 -20 10 -20 6 0 10 -7 10 -15 0 -8 -6 -15 -14 -15 -7 0 -17 -10
-21 -22 -7 -21 -8 -20 -14 11 -5 31 -7 33 -20 18 -12 -15 -9 -23 22 -63 42
-53 93 -94 118 -94 13 0 20 11 24 34 5 22 12 33 22 32 9 0 18 5 20 12 3 6 -3
12 -12 12 -8 0 -46 30 -83 68 -69 69 -112 150 -112 211 0 22 -4 27 -22 26 -12
-1 -25 -10 -29 -21 -7 -18 -8 -18 -15 4 -13 46 -27 23 -20 -35z"/>
<path d="M2570 3146 c0 -7 -10 -26 -21 -41 -12 -15 -18 -30 -13 -33 5 -4 11
-18 12 -31 3 -19 0 -23 -15 -19 -12 3 -20 0 -20 -7 0 -7 8 -10 19 -7 10 2 18
0 19 -4 1 -16 7 -39 14 -56 5 -12 2 -18 -6 -18 -11 0 -11 -3 1 -10 10 -6 11
-10 3 -10 -7 0 -13 -7 -13 -15 0 -27 -18 -16 -33 23 -9 20 -16 32 -16 25 -1
-7 -8 -10 -16 -7 -8 4 -12 10 -9 15 3 5 0 9 -6 9 -6 0 -9 4 -6 9 4 5 -3 7 -14
4 -28 -7 -32 -17 -15 -39 13 -18 14 -17 8 6 -6 23 -5 24 11 11 9 -8 15 -20 12
-27 -2 -6 6 -22 20 -35 13 -12 24 -18 24 -13 1 5 7 -6 15 -24 8 -18 12 -40 9
-50 -4 -11 3 -8 19 10 25 27 25 27 31 5 9 -35 7 -40 -9 -27 -13 11 -14 10 -9
-5 5 -13 4 -16 -4 -11 -9 6 -9 1 0 -18 6 -14 16 -26 21 -26 5 0 5 6 -2 13 -6
8 -8 17 -4 20 14 14 21 6 18 -20 -1 -16 2 -31 9 -35 6 -5 2 -8 -11 -8 -12 0
-23 4 -25 10 -3 11 -134 69 -238 106 -36 13 -56 24 -46 24 11 0 16 3 13 6 -7
8 -77 -23 -77 -34 0 -4 35 -20 78 -35 75 -28 129 -50 164 -68 10 -5 25 -9 33
-9 8 0 15 -3 15 -8 0 -7 37 -25 78 -37 21 -6 27 2 23 28 -1 5 3 6 8 2 6 -3 8
-12 4 -20 -3 -8 -2 -22 1 -31 9 -24 33 5 28 34 -3 17 -1 23 7 18 8 -5 8 0 0
21 -6 15 -12 48 -14 73 -2 25 -4 45 -5 45 -1 0 -3 17 -4 37 -1 20 -7 42 -13
50 -6 7 -10 28 -8 46 2 22 -2 32 -11 32 -16 0 -19 16 -4 25 6 4 8 11 4 16 -6
10 -12 56 -13 107 -1 23 -21 32 -21 8z"/>
<path d="M2331 3075 c-23 -25 -46 -45 -52 -45 -5 0 -15 -4 -22 -10 -62 -51
-79 -60 -105 -60 -16 0 -32 -6 -35 -14 -6 -16 -93 -32 -149 -27 -26 2 -38 -1
-38 -11 -1 -7 -6 -5 -13 7 -15 26 -47 32 -47 9 0 -9 8 -23 18 -30 16 -13 16
-13 -1 -14 -10 0 -22 -12 -27 -26 -14 -35 -13 -37 15 -32 14 3 25 1 25 -4 0
-5 34 -8 80 -6 74 3 79 4 74 23 -4 11 -11 22 -15 23 -14 6 -10 22 5 22 7 0 17
10 20 23 6 20 7 20 16 5 6 -10 17 -15 25 -11 11 4 13 1 9 -11 -3 -9 -2 -16 4
-16 6 0 8 -9 5 -20 -4 -16 -1 -18 18 -15 12 3 26 10 30 16 4 6 11 9 16 6 5 -3
9 3 8 14 -1 11 -7 24 -14 29 -10 6 -9 13 4 34 13 19 20 24 26 15 6 -10 11 -10
25 2 10 8 15 9 11 2 -10 -16 2 -43 19 -43 7 0 16 11 20 25 3 14 11 25 18 25 7
0 7 3 1 8 -5 4 -16 17 -23 30 -10 19 -10 22 4 22 9 0 23 8 30 18 13 16 13 16
14 0 0 -10 6 -18 14 -18 8 0 16 -6 19 -12 3 -9 10 -6 22 10 9 12 22 22 29 22
8 0 16 7 20 15 3 8 1 15 -4 15 -6 0 -10 -4 -10 -10 0 -5 -7 -10 -16 -10 -8 0
-12 5 -9 10 3 6 -1 10 -10 10 -11 0 -14 6 -9 25 3 14 4 25 1 25 -2 0 -23 -20
-46 -45z"/>
<path d="M1552 2956 c-7 -23 -16 -63 -22 -91 -6 -27 -24 -89 -40 -137 -17 -47
-30 -93 -30 -102 0 -9 -4 -16 -10 -16 -5 0 -10 -9 -10 -20 0 -11 7 -20 15 -20
8 0 15 8 15 18 0 23 40 63 41 41 0 -8 4 -4 9 9 5 12 6 30 3 39 -4 10 -2 14 4
10 12 -8 39 60 29 70 -3 4 -6 1 -6 -5 0 -7 -6 -12 -12 -12 -7 1 -2 10 11 20
13 11 18 20 12 20 -6 0 -9 10 -7 23 3 12 5 24 5 27 1 3 6 -2 12 -10 9 -13 10
-13 6 1 -3 9 0 22 6 29 9 10 9 11 -3 5 -12 -7 -13 -6 -3 6 10 12 10 18 0 29
-10 10 -9 12 6 7 15 -6 17 -1 15 31 -2 20 -10 44 -19 53 -14 14 -17 12 -27
-25z"/>
<path d="M3005 2880 c-10 -11 -25 -20 -33 -20 -9 0 -13 -7 -9 -20 3 -10 0 -21
-7 -24 -6 -2 -3 -5 7 -5 10 -1 17 6 17 18 0 10 7 22 16 25 25 9 26 8 9 -18
-11 -16 -13 -26 -6 -31 6 -3 11 -11 11 -16 0 -6 -4 -7 -10 -4 -14 9 -12 -8 3
-25 7 -8 1 -7 -16 4 -27 17 -28 17 -15 -3 6 -11 20 -22 30 -24 14 -4 17 -12
12 -36 -4 -19 -2 -31 4 -31 6 0 8 -16 5 -40 -4 -26 -2 -40 5 -40 6 0 9 7 6 15
-4 8 -1 15 5 15 14 0 14 -30 0 -50 -8 -11 -12 -12 -16 -2 -2 6 -12 12 -21 12
-12 0 -13 -3 -4 -12 15 -15 16 -32 2 -23 -5 3 -10 1 -10 -5 0 -7 9 -14 20 -17
11 -3 20 -13 19 -22 0 -10 -2 -11 -6 -3 -2 6 -9 9 -15 6 -5 -3 -2 -14 8 -25
17 -19 17 -22 -1 -55 -19 -36 -35 -44 -35 -19 0 8 5 15 10 15 6 0 10 5 10 12
0 6 -11 1 -25 -12 l-25 -23 0 24 c0 13 5 31 11 39 8 11 9 9 3 -10 l-7 -25 21
25 c12 14 21 19 22 13 0 -15 20 -18 20 -4 0 5 -9 12 -19 16 -25 7 -35 38 -22
62 6 12 6 25 0 36 -8 13 -6 17 5 17 13 0 14 5 6 26 -9 22 -8 25 5 20 20 -7 19
8 -1 29 -15 15 -15 17 0 34 17 19 21 31 9 31 -14 0 -34 -53 -24 -63 6 -6 4
-15 -5 -25 -12 -12 -13 -16 -3 -23 8 -4 10 -11 6 -16 -13 -12 -28 20 -22 47 4
19 3 22 -5 10 -8 -13 -11 -11 -16 7 -4 13 -10 21 -14 18 -4 -3 -11 2 -14 11
-5 12 -2 15 11 10 17 -7 17 -6 0 11 -15 16 -19 16 -27 3 -7 -11 -10 -11 -10
-2 0 7 -4 11 -10 7 -5 -3 -6 -13 -3 -22 5 -12 2 -15 -10 -10 -9 3 -19 2 -22
-4 -4 -5 -11 -7 -16 -4 -5 3 -6 -1 -3 -9 3 -9 -3 -20 -15 -28 -12 -7 -21 -20
-21 -28 1 -13 2 -13 13 0 7 8 21 16 32 18 19 2 19 2 3 -11 -10 -8 -14 -18 -10
-22 4 -5 1 -4 -7 0 -11 6 -13 4 -8 -8 3 -9 2 -19 -3 -22 -4 -3 -11 1 -13 7 -4
9 -6 7 -6 -3 -1 -9 -7 -22 -15 -29 -8 -6 -12 -18 -9 -26 3 -8 0 -14 -6 -14
-15 0 -14 16 4 49 13 26 13 30 -5 46 -11 10 -23 15 -27 12 -3 -4 -2 -7 3 -7 6
0 9 -12 8 -27 -2 -37 -2 -37 -19 -23 -9 7 -18 10 -21 7 -3 -3 3 -12 15 -19 12
-7 21 -16 21 -20 0 -9 -54 -2 -77 11 -50 26 -100 40 -112 28 -8 -8 -11 -7 -11
6 0 9 -5 17 -11 17 -6 0 -8 -7 -5 -16 4 -10 0 -15 -12 -13 -32 3 -41 -1 -36
-16 4 -9 0 -15 -9 -15 -10 0 -13 7 -10 20 5 20 -4 25 -37 20 -8 -1 -19 -6 -25
-11 -6 -7 0 -7 16 0 26 9 39 6 39 -11 0 -4 -8 -8 -17 -9 -14 0 -15 -2 -3 -6 8
-3 18 -10 21 -16 4 -5 16 0 28 12 11 11 21 17 21 13 0 -9 65 -6 80 3 5 3 18 1
28 -4 11 -6 34 -13 53 -16 37 -7 51 -15 26 -15 -10 0 -17 -7 -17 -16 0 -15 -4
-15 -60 4 -8 3 -6 -2 5 -11 20 -15 20 -16 -5 -25 -14 -5 -28 -8 -33 -5 -4 2
-6 -1 -5 -8 4 -14 -41 -28 -104 -31 -64 -4 -61 -18 3 -18 28 0 48 -4 44 -9 -3
-5 3 -12 12 -14 15 -4 15 -6 -4 -12 -28 -9 -30 -25 -3 -25 11 0 20 5 20 10 0
13 27 13 35 0 8 -13 -21 -60 -37 -60 -6 0 -3 9 7 20 23 25 14 25 -27 0 -26
-16 -29 -20 -13 -20 17 0 17 -2 5 -10 -8 -5 -22 -7 -32 -4 -9 2 -20 -1 -24 -7
-4 -8 -3 -9 4 -5 16 10 15 -2 -1 -18 -7 -7 -17 -11 -23 -9 -6 2 -17 -3 -24
-12 -7 -8 -17 -15 -22 -15 -6 0 -5 7 2 15 7 8 8 15 3 15 -5 0 -15 -12 -22 -26
-10 -22 -16 -25 -41 -21 -23 5 -28 3 -23 -8 3 -8 0 -15 -6 -15 -6 0 -11 5 -11
10 0 6 -5 10 -11 10 -6 0 -9 -7 -5 -15 4 -10 -3 -17 -22 -21 -15 -3 -42 -13
-60 -21 -19 -8 -36 -12 -39 -9 -3 3 0 8 8 10 40 13 40 16 1 11 -67 -8 -76 -24
-48 -77 27 -52 40 -98 27 -98 -5 0 -13 5 -16 10 -9 15 -25 12 -25 -5 0 -15 34
-38 43 -29 3 3 13 7 24 8 20 3 21 7 9 54 -4 18 -11 30 -15 27 -5 -2 -6 7 -3
21 3 19 1 25 -11 22 -9 -2 -16 2 -17 7 0 6 10 12 22 13 13 2 28 8 35 13 7 7
14 6 18 -1 5 -8 11 -8 21 1 16 13 15 14 32 -21 l12 -25 -3 29 c-1 16 3 31 8
33 6 2 11 -7 12 -19 3 -43 14 -88 21 -88 4 0 6 33 4 72 -2 72 -2 73 15 48 10
-13 25 -32 35 -41 9 -9 19 -27 23 -39 6 -19 9 -20 21 -8 13 13 12 21 -5 61
-25 59 -20 76 23 72 25 -2 34 2 42 19 12 27 50 33 74 11 11 -10 19 -20 18 -24
-5 -40 4 -61 25 -61 20 -1 20 -2 4 -11 -10 -6 -25 -8 -33 -5 -9 3 -26 -5 -40
-20 -22 -21 -24 -27 -12 -41 10 -12 10 -17 1 -20 -7 -2 -9 -11 -6 -19 3 -9 -1
-14 -11 -14 -9 0 -28 -7 -42 -16 -13 -9 -27 -14 -31 -10 -4 3 -15 -2 -26 -11
-19 -17 -20 -17 -14 0 4 9 3 17 -2 17 -5 0 -11 -9 -14 -20 -3 -11 -13 -20 -24
-20 -11 0 -14 3 -7 8 6 4 14 15 17 26 5 13 14 17 32 14 30 -6 40 15 17 34 -14
13 -21 13 -42 2 -14 -8 -19 -14 -10 -14 13 0 13 -2 1 -9 -8 -6 -22 -6 -31 -1
-16 8 -65 -22 -53 -33 3 -3 -2 -13 -11 -22 -9 -9 -16 -12 -16 -6 0 5 5 13 10
16 7 4 3 19 -10 39 -11 19 -21 45 -22 60 -2 27 -23 31 -24 5 0 -24 19 -73 33
-84 11 -8 12 -17 4 -37 -6 -15 -6 -28 -1 -30 5 -2 10 -16 12 -33 2 -16 8 -33
13 -37 7 -5 6 -14 -1 -26 -11 -16 -8 -18 25 -17 20 0 42 4 49 9 7 4 31 10 52
12 22 2 57 11 77 21 21 9 43 17 48 18 6 1 23 5 38 10 23 6 25 9 14 19 -14 11
-37 68 -37 91 0 7 10 17 23 22 17 8 28 6 51 -10 l29 -20 -6 34 c-6 30 -4 36
23 51 24 14 30 14 30 3 0 -7 -9 -17 -20 -20 -29 -9 -24 -27 7 -23 31 4 43 -18
14 -27 -12 -4 -18 -12 -14 -21 5 -13 8 -13 29 1 22 14 28 12 25 -7 -3 -20 18
-5 31 23 12 25 17 27 22 14 5 -13 10 -15 19 -6 10 8 19 7 33 -3 16 -12 20 -12
30 3 8 11 25 16 48 16 22 -1 37 4 41 12 2 8 9 12 13 9 7 -4 42 27 42 38 0 2
-18 3 -40 2 -39 -1 -52 -10 -27 -19 10 -4 10 -7 0 -18 -11 -11 -13 -11 -13 1
0 9 -6 8 -20 -5 -21 -19 -21 -19 -15 13 4 25 2 30 -10 26 -10 -4 -18 3 -25 22
-6 16 -16 32 -22 35 -17 11 0 59 20 59 19 0 65 -46 68 -68 4 -22 11 -24 33
-10 27 16 27 24 -1 32 -26 6 -52 55 -42 79 12 31 42 30 74 -3 17 -17 28 -35
25 -40 -3 -4 1 -10 9 -13 8 -3 19 5 26 18 7 13 22 26 33 29 12 3 19 8 15 11
-3 3 -18 1 -33 -5 -20 -7 -31 -8 -39 0 -7 7 -2 10 17 10 18 0 27 5 27 16 0 11
-5 14 -17 9 -39 -16 -49 -15 -61 5 -18 29 -6 60 23 60 16 0 33 -13 52 -39 26
-37 57 -57 66 -42 2 3 2 1 1 -6 -2 -6 2 -14 9 -17 9 -3 9 -5 0 -5 -7 -1 -13
-8 -13 -16 0 -8 -5 -15 -11 -15 -6 0 -8 9 -4 23 5 19 3 18 -19 -8 -14 -16 -26
-25 -26 -20 0 12 -20 -16 -20 -29 0 -6 5 -5 12 2 7 7 17 12 23 12 5 0 2 -7 -9
-15 -13 -10 -24 -11 -37 -5 -12 7 -20 7 -24 0 -3 -6 1 -13 10 -16 14 -6 14 -8
-1 -25 -38 -42 6 -15 66 41 36 33 68 60 71 60 4 0 9 7 13 15 3 8 13 15 22 15
12 0 15 -7 12 -24 -4 -19 -1 -22 14 -18 22 5 23 30 3 59 -15 21 -14 23 15 44
16 13 30 29 30 37 0 8 16 29 35 48 19 18 35 36 35 39 0 9 27 35 37 35 5 0 10
-12 11 -27 1 -15 7 -32 14 -38 8 -7 9 -6 4 3 -4 6 -3 12 2 12 5 0 9 7 9 15 0
8 -4 15 -9 15 -11 0 1 74 13 78 5 2 9 14 9 27 0 15 7 26 20 30 11 3 19 14 18
23 -1 9 0 28 0 41 2 20 4 22 17 11 9 -7 19 -9 23 -5 4 4 0 12 -10 18 -14 9
-14 13 -2 33 14 20 13 21 -11 17 -14 -3 -25 -12 -25 -19 0 -8 -5 -14 -12 -14
-6 0 -8 -3 -5 -7 4 -3 2 -12 -4 -20 -9 -10 -8 -13 5 -13 9 0 16 -5 16 -11 0
-6 -6 -9 -14 -6 -9 4 -16 -3 -20 -19 -5 -20 -11 -24 -29 -19 -14 4 -18 3 -9
-3 8 -5 10 -16 6 -28 -11 -28 -40 -64 -48 -57 -3 3 -6 -5 -6 -20 0 -14 -5 -29
-10 -32 -7 -4 -9 10 -8 39 3 42 5 45 28 40 25 -5 25 -5 5 11 -20 17 -20 17 3
10 16 -5 22 -2 22 9 0 10 -6 13 -15 10 -8 -4 -15 -1 -15 5 0 6 4 11 9 11 5 0
12 11 15 25 4 14 11 25 17 25 6 0 9 -6 6 -13 -3 -8 1 -14 8 -14 16 0 15 18 0
30 -6 6 -6 10 3 14 19 8 14 23 -8 23 -11 0 -20 5 -20 10 0 7 -7 7 -21 -1 -15
-8 -20 -18 -16 -35 2 -13 0 -21 -4 -18 -5 3 -9 0 -9 -5 0 -6 -6 -11 -13 -11
-8 0 -14 7 -14 15 0 8 4 15 8 15 4 0 10 7 13 16 5 13 3 14 -6 6 -7 -6 -17 -10
-22 -9 -12 2 -16 -42 -4 -49 4 -3 8 -13 7 -22 0 -15 -1 -15 -8 1 -6 17 -8 17
-20 3 -7 -9 -20 -16 -28 -16 -19 0 -8 60 14 77 8 6 12 17 8 23 -4 7 -2 16 6
20 10 7 10 12 -2 26 -12 16 -12 17 4 11 9 -3 17 -2 17 2 0 16 -28 20 -40 5 -7
-8 -19 -14 -26 -14 -14 0 -16 -5 -18 -45 -1 -13 -7 -19 -19 -19 -15 2 -16 -1
-5 -14 10 -12 10 -16 1 -19 -7 -3 -13 -14 -13 -24 0 -11 -5 -17 -10 -14 -13 8
-42 -20 -32 -30 4 -5 -1 -5 -10 -2 -13 4 -18 1 -18 -10 0 -13 -3 -14 -11 -6
-8 8 -7 17 3 32 8 12 18 18 21 14 4 -3 7 1 7 11 0 9 -4 14 -10 11 -14 -8 -13
18 1 32 8 8 8 17 0 31 -6 10 -7 22 -4 26 3 3 2 6 -4 6 -5 0 -8 16 -7 36 3 29
0 35 -13 30 -13 -5 -14 -4 -3 9 7 8 10 22 6 30 -3 9 3 20 14 27 11 7 20 19 20
26 0 7 10 16 22 21 l22 8 -22 5 c-12 4 -22 2 -22 -3 0 -15 -52 -69 -61 -63 -5
3 -2 12 6 20 17 17 20 44 5 44 -5 0 -7 7 -4 15 8 21 1 19 -21 -5z m-157 -429
c12 -11 22 -24 22 -30 0 -16 17 -13 24 4 3 8 10 15 17 15 7 0 8 -7 4 -17 -4
-10 -8 -27 -10 -37 -1 -11 -7 -22 -13 -24 -7 -2 -12 -8 -12 -14 0 -6 6 -6 15
2 12 10 15 10 16 -1 0 -10 2 -11 6 -1 2 6 9 12 15 12 7 0 6 -5 -1 -14 -9 -11
-9 -15 0 -18 7 -2 6 -8 -4 -16 -12 -11 -15 -10 -13 5 0 12 -4 16 -14 14 -8 -3
-31 -5 -50 -5 -19 -1 -39 -7 -43 -13 -4 -7 -16 -13 -27 -13 -12 0 -20 -8 -22
-22 -2 -13 -7 -23 -13 -23 -5 0 -16 -4 -24 -9 -10 -6 -16 -5 -19 2 -7 23 -19
11 -14 -15 4 -21 2 -25 -11 -20 -9 3 -18 0 -21 -9 -4 -9 1 -14 14 -14 11 0 20
3 20 8 0 8 62 52 75 52 5 0 -7 -13 -25 -30 -20 -17 -28 -30 -19 -30 11 -1 10
-4 -3 -14 -19 -14 -25 -32 -8 -21 6 3 10 2 10 -3 0 -11 -44 -32 -68 -32 -18
-1 -63 -30 -46 -30 6 0 15 5 22 12 6 6 14 9 18 6 3 -4 -7 -15 -22 -24 -20 -14
-29 -15 -32 -6 -2 7 -9 10 -15 6 -7 -3 -3 1 8 10 52 40 52 41 10 47 -22 3 -35
7 -30 8 6 2 21 5 35 7 13 3 29 9 34 14 5 5 1 7 -11 4 -16 -5 -26 4 -47 41 -14
26 -26 49 -26 52 0 5 53 27 63 25 4 -1 7 4 7 11 0 15 35 33 60 32 10 0 15 -10
15 -27 -1 -18 5 -28 18 -32 14 -3 17 0 13 11 -3 8 -9 26 -12 39 -3 13 -10 24
-14 24 -5 0 -6 9 -3 20 5 19 23 29 23 12 0 -4 14 -16 30 -25 17 -10 30 -13 30
-8 0 6 7 11 15 11 8 0 15 -5 15 -12 0 -9 3 -9 11 -1 18 18 1 33 -29 27 -39 -8
-57 15 -36 44 9 13 21 19 31 15 11 -4 14 -3 9 5 -9 15 1 32 17 32 7 -1 22 -9
35 -19z"/>
<path d="M1815 2761 c-58 -21 -85 -34 -85 -40 0 -4 -21 -19 -47 -34 -27 -14
-70 -42 -97 -61 -27 -19 -53 -33 -58 -30 -4 3 -11 -2 -14 -10 -3 -8 -21 -20
-40 -26 -24 -8 -39 -22 -48 -43 -23 -56 0 -63 54 -17 19 16 40 34 47 40 7 5
16 10 21 10 5 0 22 13 38 30 16 16 37 30 47 30 9 0 17 7 17 15 0 8 9 15 20 15
11 0 20 5 20 10 0 6 9 10 19 10 10 0 21 7 25 15 3 8 12 15 21 15 8 0 15 4 15
10 0 5 11 12 24 16 14 3 27 12 30 20 3 8 12 14 21 14 8 0 15 5 15 10 0 11 -15
11 -45 1z"/>
<path d="M2190 2657 c-8 -7 -15 -22 -14 -35 1 -19 1 -20 -3 -2 -3 15 -11 20
-26 18 -27 -4 -37 -16 -29 -36 4 -13 7 -12 14 4 6 14 7 13 3 -8 -3 -14 0 -28
6 -30 16 -5 -1 -38 -20 -38 -10 0 -12 3 -5 8 9 5 9 10 -1 18 -9 9 -12 4 -13
-23 -1 -18 -5 -39 -8 -45 -5 -8 -1 -9 9 -5 11 4 17 1 17 -8 0 -9 -10 -16 -22
-16 -17 -1 -19 -2 -5 -6 18 -5 24 -23 7 -23 -5 0 -10 -5 -10 -10 0 -16 40 13
41 30 0 10 2 11 6 3 2 -7 12 -13 20 -13 9 0 13 6 9 15 -3 8 0 15 7 15 8 0 7 4
-3 10 -11 7 -9 11 13 19 16 6 42 11 58 11 25 0 30 5 35 30 4 16 13 35 20 41 8
6 14 16 14 22 0 6 7 19 17 29 15 17 15 18 -5 18 -11 0 -24 5 -27 10 -9 14 -87
12 -105 -3z"/>
<path d="M1906 2615 c-4 -12 -10 -14 -26 -5 -23 13 -63 5 -107 -22 l-32 -19
24 -39 c14 -22 25 -44 25 -49 0 -17 20 -23 35 -11 21 18 64 4 77 -24 6 -15 16
-22 24 -19 8 3 14 0 14 -6 0 -6 -9 -11 -20 -11 -11 0 -20 5 -20 11 0 5 -4 7
-10 4 -19 -12 -10 -24 23 -27 17 -2 30 -7 27 -13 -3 -5 -8 -9 -11 -8 -4 1 -9
-7 -12 -18 -4 -16 -3 -18 9 -8 20 16 17 0 -6 -38 -11 -18 -16 -33 -11 -33 5 0
12 6 14 13 4 7 6 6 6 -5 1 -9 -5 -19 -11 -21 -9 -4 -8 -6 3 -6 8 -1 20 -13 26
-28 11 -28 11 -28 12 10 1 22 -5 45 -14 54 -18 18 -11 33 16 33 10 0 19 6 19
13 0 6 4 19 10 27 7 12 12 12 34 0 14 -7 26 -20 26 -28 0 -13 3 -13 18 1 17
16 19 15 32 -18 8 -19 16 -36 19 -36 3 -1 17 -3 31 -4 14 -2 47 -6 73 -9 l49
-6 -4 63 c-3 55 -5 62 -23 61 -34 -2 -85 -16 -85 -24 0 -4 -11 -7 -25 -7 -13
0 -23 3 -20 6 2 4 -1 13 -6 21 -8 13 -9 13 -7 0 5 -28 -28 -28 -35 0 -6 23
-31 26 -68 6 -41 -21 -58 -5 -48 46 13 70 12 78 -16 78 -22 0 -25 3 -20 29 3
17 0 33 -5 36 -8 5 -7 11 1 21 6 8 10 17 7 20 -3 3 -8 -2 -12 -11z"/>
<path d="M1237 2472 c-9 -16 -27 -99 -30 -134 -1 -10 -5 -18 -10 -18 -5 0 -4
-6 2 -13 6 -8 12 -37 15 -66 2 -29 7 -55 10 -58 3 -4 6 -1 6 5 0 7 6 12 13 12
7 0 21 19 32 43 16 34 24 41 44 39 15 -2 21 0 17 7 -4 6 -18 11 -32 11 -13 0
-24 5 -24 10 0 6 -7 10 -15 10 -8 0 -15 9 -15 20 0 11 -4 20 -10 20 -5 0 -9
11 -8 25 3 29 4 30 24 10 9 -8 12 -15 8 -15 -5 0 18 -24 51 -54 58 -55 82 -62
69 -24 -4 13 2 28 17 44 18 20 25 22 38 11 14 -11 14 -10 2 6 -12 15 -10 17
20 18 19 0 28 3 20 6 -11 4 -11 7 0 14 7 4 22 3 33 -3 21 -11 21 -10 1 9 -18
18 -59 27 -49 11 3 -5 -3 -11 -13 -15 -10 -4 -24 -13 -31 -20 -7 -7 -25 -14
-40 -14 -17 -1 -21 -3 -9 -6 9 -2 17 -8 17 -13 0 -5 -6 -7 -14 -4 -10 4 -13
-3 -10 -26 2 -19 0 -29 -6 -25 -6 4 -10 12 -9 18 3 28 -2 48 -11 42 -5 -3 -7
-13 -4 -23 5 -14 3 -14 -10 2 -9 11 -16 25 -16 32 0 6 -6 17 -14 24 -8 6 -12
18 -9 26 3 8 0 14 -6 14 -6 0 -11 9 -11 19 0 19 -26 37 -33 23z"/>
<path d="M1004 2348 c0 -29 4 -55 8 -58 8 -7 14 -36 7 -35 -3 0 -13 -6 -22
-13 -12 -10 -17 -10 -23 -1 -4 7 -3 9 3 6 6 -4 14 0 17 8 3 9 1 15 -7 14 -29
-4 -39 3 -53 36 -8 19 -19 35 -24 35 -11 0 -3 -26 17 -55 7 -11 13 -26 13 -35
0 -9 13 -29 28 -46 15 -17 26 -36 24 -42 -7 -22 23 -12 41 14 17 22 24 40 26
67 2 17 19 5 25 -17 3 -14 15 -28 27 -31 23 -8 20 -31 -4 -29 -12 1 -14 -6
-10 -31 4 -26 1 -35 -15 -44 -14 -7 -19 -17 -15 -28 5 -13 2 -15 -15 -11 -12
4 -20 2 -16 -3 14 -24 50 -7 78 37 32 51 65 57 77 14 4 -14 7 -21 8 -17 1 4
10 3 21 -3 21 -11 28 -40 10 -40 -5 0 -10 5 -10 10 0 6 -5 10 -11 10 -7 0 -8
-7 -4 -17 12 -31 10 -37 -7 -38 -18 0 -20 -8 -10 -33 2 -7 2 -16 -2 -19 -3 -3
8 -21 24 -39 16 -19 28 -40 26 -46 -1 -7 -1 -10 1 -6 2 4 12 4 21 1 26 -9 52
-35 46 -44 -3 -5 0 -9 6 -9 7 0 9 9 5 23 -5 19 -4 20 5 5 13 -22 34 -24 27 -3
-4 8 -2 17 3 20 6 4 10 13 10 22 0 14 -2 14 -19 -1 -18 -16 -51 -13 -51 6 0 5
-8 8 -17 6 -15 -2 -18 4 -16 35 2 23 -1 35 -7 32 -6 -3 -10 -13 -10 -21 0 -8
-4 -14 -10 -14 -14 0 -12 15 7 58 9 20 17 40 17 44 3 21 17 17 27 -8 6 -16 13
-24 16 -17 5 13 26 4 78 -33 17 -12 51 -29 77 -39 46 -17 47 -18 50 -64 l3
-46 18 32 c21 39 22 63 3 63 -8 0 -22 10 -30 22 -9 12 -16 17 -16 10 0 -19
-51 7 -83 42 -15 17 -24 23 -21 13 5 -13 2 -16 -10 -11 -10 4 -15 13 -12 20 3
7 0 16 -6 20 -7 4 -8 3 -4 -4 11 -19 -14 -14 -41 8 -20 15 -22 20 -9 20 10 0
14 5 11 11 -4 5 -12 8 -18 6 -18 -6 -47 12 -47 29 0 8 -4 13 -9 10 -5 -3 -15
1 -22 10 -11 13 -9 15 17 10 26 -6 25 -5 -5 7 -19 7 -39 22 -45 33 -6 10 -17
23 -23 27 -14 9 -119 164 -129 191 -12 32 -22 15 -20 -36z"/>
<path d="M1530 2173 c0 -6 -11 -8 -25 -5 -15 2 -25 0 -25 -7 0 -6 6 -11 13
-11 22 0 57 -36 57 -58 0 -11 -5 -33 -10 -47 -8 -20 -7 -26 2 -23 7 3 15 15
16 29 2 13 8 29 14 36 11 14 47 14 66 0 14 -11 16 -47 2 -47 -5 0 -9 5 -7 11
1 6 -3 13 -10 16 -7 3 -15 -10 -19 -32 -7 -38 2 -58 15 -37 4 7 14 12 21 10 8
-2 19 11 26 32 22 66 40 42 47 -62 2 -30 7 -38 25 -43 37 -9 62 3 62 31 0 28
-21 28 -32 1 -5 -10 -13 -17 -19 -15 -13 4 -13 6 -5 68 l7 50 47 -5 c89 -8
137 -7 162 2 32 12 77 10 92 -5 9 -9 8 -18 -1 -38 -8 -19 -9 -30 0 -40 6 -7 9
-17 6 -21 -3 -4 1 -14 9 -20 7 -7 15 -9 19 -4 3 5 0 11 -7 13 -12 4 -13 35 -4
102 4 25 1 43 -9 52 -7 8 -15 10 -17 4 -4 -11 -63 -14 -137 -6 -30 3 -62 1
-72 -4 -12 -7 -19 -6 -22 3 -3 9 -10 9 -30 -2 -21 -11 -29 -12 -42 -1 -9 8
-27 10 -51 5 -28 -5 -34 -3 -28 7 6 10 4 10 -9 -1 -15 -12 -20 -12 -35 1 -9 9
-30 20 -47 25 -16 5 -30 15 -30 21 0 5 -3 14 -7 18 -5 4 -8 3 -8 -3z"/>
<path d="M3341 1939 c-1 -49 6 -84 24 -133 28 -73 32 -94 11 -57 l-14 25 1
-31 c1 -17 5 -29 9 -27 5 3 8 0 8 -5 0 -6 -8 -11 -17 -12 -12 -1 -10 -4 7 -9
18 -6 20 -8 7 -9 -10 -1 -15 -5 -12 -11 3 -5 2 -10 -4 -10 -5 0 -11 5 -13 12
-3 7 -7 6 -11 -5 -3 -9 -2 -17 3 -17 6 0 10 -5 10 -11 0 -8 -4 -8 -15 1 -8 7
-13 24 -11 41 2 16 0 29 -5 29 -4 0 -6 12 -3 28 l4 27 -14 -24 c-13 -24 -13
-24 -18 13 -4 34 4 57 15 39 2 -5 2 -1 -1 7 -2 8 -5 22 -6 29 -2 8 -8 17 -15
19 -6 2 -11 0 -10 -5 1 -4 -1 -16 -6 -26 -4 -9 -3 -23 3 -30 5 -6 9 -25 8 -42
-1 -17 4 -35 13 -42 14 -11 14 -14 -2 -30 -16 -16 -17 -16 -12 -1 4 10 -4 32
-19 54 -14 21 -23 41 -20 46 7 11 -8 10 -26 -2 -13 -8 -12 -10 3 -10 10 0 15
-4 12 -10 -3 -5 -1 -10 5 -10 6 0 8 -4 5 -10 -3 -5 -1 -10 5 -10 7 0 10 -7 6
-15 -3 -8 0 -14 7 -12 7 1 12 -9 11 -25 -1 -15 2 -25 6 -23 4 2 5 -7 2 -20 -3
-17 1 -27 12 -31 13 -5 14 -9 5 -21 -8 -9 -8 -13 -2 -11 12 3 14 -9 6 -29 -3
-7 -9 -10 -14 -7 -5 3 -7 10 -4 15 4 5 -1 12 -10 15 -13 6 -14 8 -3 15 10 7
11 9 0 9 -7 0 -10 5 -7 10 3 6 1 10 -5 10 -6 0 -8 5 -5 10 4 6 -1 24 -9 41 -9
17 -13 35 -10 40 3 5 0 9 -5 9 -12 0 -15 -23 -4 -34 4 -3 8 -12 9 -19 2 -7 6
-23 9 -37 3 -14 7 -32 9 -39 1 -8 7 -16 13 -18 6 -2 8 -15 5 -29 -4 -24 -27
-29 -27 -7 0 6 -3 14 -7 18 -8 9 -4 -13 9 -45 6 -14 8 -29 5 -34 -3 -5 0 -6 7
-2 7 5 10 14 7 22 -3 8 6 20 25 29 18 10 27 21 23 28 -4 7 -4 9 0 5 4 -3 7 -9
6 -13 -1 -4 7 -13 17 -22 17 -13 15 -14 -15 -9 -24 4 -32 2 -29 -7 2 -6 -7
-27 -21 -46 -14 -19 -21 -31 -14 -27 6 3 16 -2 22 -13 6 -12 16 -18 25 -14 12
4 13 9 4 19 -8 10 -8 14 0 14 6 0 11 5 11 10 0 7 -8 6 -22 -1 -20 -11 -21 -10
-11 3 7 8 9 18 5 23 -4 4 3 3 14 -3 14 -8 22 -21 22 -39 0 -15 5 -29 11 -31 6
-2 11 -9 11 -15 0 -8 -4 -7 -12 1 -7 7 -19 12 -28 12 -12 0 -12 -2 -2 -9 11
-6 10 -10 -4 -15 -10 -4 -15 -4 -11 0 4 4 -2 14 -14 22 -16 11 -23 12 -32 3
-9 -9 -7 -10 8 -5 20 7 20 7 1 -14 -18 -21 -18 -21 1 -18 16 4 18 -1 15 -32
-2 -25 0 -33 6 -23 6 8 12 9 16 3 3 -6 15 -8 25 -5 22 6 37 -12 20 -23 -8 -4
-9 -3 -5 4 4 7 1 12 -8 12 -18 0 -30 -17 -17 -25 6 -3 7 -13 4 -21 -4 -10 2
-17 15 -21 17 -4 19 -9 11 -30 -6 -16 -6 -22 1 -18 6 3 10 -1 10 -10 0 -12 5
-15 16 -11 9 3 18 6 20 6 3 0 3 4 -1 9 -3 5 -1 12 4 15 5 3 11 -5 13 -19 3
-13 1 -22 -4 -19 -4 3 -18 2 -30 -2 -21 -6 -21 -6 -1 -23 27 -21 38 -52 16
-44 -11 4 -14 2 -9 -5 5 -8 2 -10 -8 -6 -10 4 -16 1 -16 -9 0 -11 7 -14 23
-10 21 5 21 5 3 -9 -12 -9 -16 -20 -11 -27 6 -10 3 -11 -15 -1 -12 7 -20 8
-16 2 3 -5 -1 -12 -9 -16 -8 -3 -15 -1 -15 5 0 6 -8 5 -21 -2 -15 -8 -19 -8
-15 0 4 6 3 11 -3 11 -21 0 -21 -21 -1 -57 12 -21 19 -31 17 -22 -3 9 1 16 9
16 7 0 11 -4 8 -9 -3 -4 4 -8 15 -8 11 0 23 -5 26 -10 4 -6 10 -8 15 -5 4 3 6
-5 2 -17 -4 -17 -2 -20 12 -15 10 4 15 3 11 -3 -3 -6 -2 -10 3 -10 5 0 12 -9
15 -20 8 -31 10 -34 24 -48 16 -17 17 -32 1 -32 -7 0 -3 -7 9 -15 11 -8 23
-24 26 -35 6 -23 3 -24 -24 -10 -10 6 -19 8 -19 5 0 -10 28 -36 37 -34 25 4
36 -3 16 -11 -13 -5 -23 -15 -23 -22 0 -9 3 -9 12 0 19 19 33 14 33 -13 0 -20
-4 -24 -20 -19 -11 4 -26 11 -32 16 -9 7 -13 6 -13 -3 0 -8 -6 -5 -15 7 -11
15 -14 16 -15 3 0 -8 7 -24 15 -35 8 -10 15 -26 15 -35 0 -8 9 -25 20 -37 12
-12 16 -22 9 -22 -7 0 -6 -9 5 -25 9 -13 16 -31 16 -40 0 -8 5 -15 11 -15 5 0
8 -4 5 -9 -3 -5 5 -11 19 -13 14 -3 25 -1 25 3 0 5 5 9 11 9 6 0 8 -7 5 -15
-3 -9 1 -18 8 -21 8 -3 13 -14 11 -25 -2 -11 0 -17 6 -14 5 4 9 1 9 -5 0 -6 4
-8 10 -5 5 3 7 0 4 -8 -3 -8 2 -21 10 -30 12 -11 13 -17 3 -20 -8 -3 -7 -7 5
-12 15 -6 14 -9 -4 -27 -20 -20 -22 -20 -35 -3 -12 17 -13 17 -13 2 0 -9 5
-17 10 -17 6 0 9 -3 8 -7 -1 -9 14 -49 42 -108 10 -22 24 -52 29 -67 l11 -28
119 0 c117 0 119 0 113 22 -3 14 -2 19 6 14 7 -4 12 -14 12 -22 0 -11 14 -14
60 -14 33 0 60 4 60 10 0 6 9 10 19 10 10 0 22 7 25 16 3 8 2 12 -4 9 -6 -3
-10 -2 -10 4 0 5 8 15 18 20 16 10 15 11 -3 12 -11 1 -26 2 -32 2 -7 -1 -10 4
-7 9 4 5 17 8 30 5 19 -3 24 0 23 17 0 11 -3 15 -6 9 -2 -7 -17 -12 -31 -12
-23 2 -23 2 -5 6 12 2 24 11 27 20 5 13 4 14 -8 4 -10 -8 -16 -9 -21 -1 -3 5
-3 10 2 10 4 0 9 12 9 26 1 14 10 32 20 40 18 14 17 15 -6 8 -22 -6 -23 -5
-11 10 12 14 11 16 -6 16 -11 0 -20 6 -20 14 0 8 6 12 14 9 7 -3 13 -1 13 5 0
6 -11 9 -24 8 -34 -4 -56 11 -36 24 11 7 11 10 2 10 -8 0 -10 5 -6 12 5 7 2 9
-8 5 -11 -4 -18 1 -21 15 -3 11 -10 17 -16 13 -6 -3 -11 1 -11 10 0 11 7 14
28 10 26 -5 26 -5 4 5 -13 5 -36 8 -50 5 l-27 -5 25 11 25 12 -25 7 c-16 5
-19 8 -7 9 21 1 22 14 2 31 -11 9 -12 16 -3 30 9 14 9 22 -2 35 -7 9 -9 15 -4
14 21 -4 25 2 10 16 -18 18 -27 19 -23 3 1 -8 -10 -14 -25 -16 -18 -2 -28 2
-29 10 -5 49 -4 90 2 93 10 7 2 59 -10 63 -15 5 -14 29 2 35 7 4 6 6 -4 6 -9
1 -19 8 -22 15 -4 11 -1 13 11 10 14 -5 13 -3 -2 10 -15 12 -16 16 -5 17 8 0
4 5 -8 11 -13 6 -23 15 -23 20 0 4 -5 8 -11 8 -5 0 -7 -5 -4 -10 3 -6 1 -10
-4 -10 -6 0 -11 7 -11 15 0 21 -1 27 -10 51 -5 13 -4 26 3 33 9 10 7 16 -9 30
-12 9 -25 27 -28 39 -4 12 -11 22 -15 22 -4 0 -15 24 -25 53 -11 28 -23 56
-27 62 -5 5 -9 23 -9 41 0 18 -4 34 -9 36 -6 2 -12 14 -14 28 -10 52 -31 111
-44 121 -10 9 -13 8 -13 -1 0 -8 -3 -11 -6 -8 -3 4 0 16 6 29 11 19 10 21 -4
16 -13 -5 -14 -3 -5 12 9 13 7 28 -11 67 -12 27 -33 81 -47 119 -14 39 -32 74
-39 78 -8 4 -14 14 -14 22 0 8 -11 39 -25 69 -43 94 -48 109 -55 181 l-7 70
-2 -66z"/>
<path d="M1575 1889 c-22 -8 -22 -8 15 -15 14 -3 27 -9 28 -14 2 -6 17 -10 32
-10 17 0 34 -7 40 -17 8 -13 13 -14 16 -5 7 16 39 15 53 -2 23 -28 2 -106 -28
-106 -13 0 -14 -10 -2 -28 6 -11 9 -9 13 6 4 14 18 21 53 26 36 6 45 11 41 22
-4 11 -1 14 12 12 9 -2 15 -11 13 -19 -2 -8 -6 -22 -8 -32 -4 -13 -1 -16 13
-10 11 4 13 8 6 11 -7 2 -9 8 -6 14 4 6 12 1 20 -13 l13 -24 1 31 c0 16 5 35
12 42 9 9 9 12 0 12 -6 0 -15 -6 -19 -14 -7 -12 -10 -12 -20 0 -8 7 -9 15 -3
19 11 7 2 35 -12 35 -5 0 -8 -7 -6 -16 2 -10 -3 -19 -10 -21 -7 -3 -10 1 -6
10 3 8 1 18 -5 22 -6 3 -11 12 -11 18 0 7 4 6 10 -3 6 -9 10 -10 10 -3 0 6 3
18 6 26 3 10 -3 16 -20 19 -14 3 -26 1 -26 -3 0 -5 5 -9 12 -9 6 0 9 -3 5 -6
-3 -3 -11 -3 -18 2 -7 4 -26 9 -43 11 -55 7 -71 10 -86 16 -53 19 -77 23 -95
16z"/>
<path d="M973 1598 c4 -145 13 -337 21 -428 8 -91 17 -205 21 -255 3 -49 8
-112 10 -140 3 -27 10 -126 15 -220 6 -93 22 -257 37 -362 l26 -193 309 0
c169 0 308 3 308 7 0 4 -18 43 -39 88 -68 138 -171 357 -171 362 0 2 -11 28
-24 56 -27 59 -81 183 -119 272 -14 33 -60 148 -102 255 -42 107 -83 209 -90
225 -15 35 -155 454 -179 538 -9 31 -19 57 -23 57 -3 0 -3 -118 0 -262z"/>
<path d="M1865 1258 c-10 -18 -13 -28 -5 -23 10 6 12 1 8 -19 -5 -25 -3 -27
18 -22 l24 6 -21 -36 c-19 -34 -19 -36 -2 -30 17 6 17 5 0 -8 -11 -8 -25 -12
-33 -9 -8 3 -14 0 -14 -7 0 -6 -5 -8 -11 -4 -8 4 -4 13 12 25 24 18 24 18 2
16 -12 0 -20 -4 -17 -8 2 -4 -4 -12 -13 -18 -26 -14 -9 -25 41 -25 30 -1 42
-5 39 -13 -4 -10 2 -10 26 -2 17 6 34 15 37 20 3 5 10 6 16 3 6 -4 8 -1 6 7
-3 8 -11 13 -17 11 -7 -1 -9 3 -6 9 5 8 12 7 22 -4 12 -11 13 -19 4 -33 -8
-15 -11 -15 -11 -4 -1 11 -5 10 -18 -6 -10 -11 -24 -19 -32 -17 -13 4 -13 3 0
-6 11 -8 18 -7 26 4 15 20 24 19 25 -2 0 -14 2 -13 9 5 5 12 14 22 19 22 24 0
37 -69 16 -87 -4 -5 -5 -1 -1 7 4 8 0 6 -8 -4 -22 -28 -20 -46 7 -46 17 0 19
2 7 10 -8 5 -12 12 -9 15 10 9 28 -20 21 -32 -6 -9 -14 -9 -35 2 -25 13 -28
12 -43 -10 -9 -14 -22 -21 -30 -18 -9 3 -14 -1 -14 -13 0 -16 2 -17 10 -4 9
13 10 13 10 0 1 -12 3 -12 14 2 7 10 17 14 21 10 5 -4 5 -2 1 5 -3 6 -1 15 5
19 8 4 9 3 5 -4 -4 -7 -2 -12 5 -12 10 0 10 -3 1 -12 -7 -7 -17 -14 -22 -14
-6 -1 -11 -2 -12 -4 -15 -11 -45 -4 -60 13 l-19 22 10 -22 c14 -28 14 -36 -1
-27 -7 4 -8 3 -4 -5 4 -6 11 -9 16 -6 4 3 11 -2 14 -11 11 -29 6 -38 -10 -18
-14 18 -15 18 -4 -4 6 -12 15 -20 20 -17 13 8 52 -73 44 -88 -4 -7 -4 -9 1 -5
10 10 56 -58 120 -177 61 -111 255 -401 266 -398 5 2 8 -1 6 -6 -1 -5 14 -29
34 -53 19 -23 44 -55 53 -71 13 -19 27 -27 47 -27 16 0 29 4 29 9 0 5 -20 51
-44 103 -24 51 -58 130 -76 173 -38 91 -48 107 -63 98 -6 -4 -8 4 -5 22 6 31
-9 88 -22 80 -4 -3 -14 3 -21 12 -11 13 -11 17 -1 20 6 3 12 9 12 14 0 6 -5 7
-10 4 -11 -7 -33 42 -25 55 3 4 -1 10 -9 13 -7 3 -13 16 -13 29 0 36 -36 101
-63 115 -18 9 -20 13 -7 13 9 0 17 3 17 6 0 11 -28 33 -34 27 -3 -4 -6 1 -6
10 0 9 5 17 11 17 6 0 1 14 -11 30 -12 17 -18 30 -14 30 4 0 -1 9 -11 20 -9
10 -15 26 -12 35 4 9 -4 25 -21 40 -15 14 -23 25 -19 25 4 0 1 13 -8 30 -17
33 -22 76 -5 50 6 -10 10 -11 10 -3 0 7 -9 18 -20 25 -11 7 -20 16 -20 21 0 4
5 5 12 1 6 -4 3 4 -8 18 -10 14 -21 24 -24 23 -3 -2 -6 5 -6 15 0 11 6 16 16
13 8 -3 3 5 -12 17 -16 12 -28 30 -28 41 0 31 -15 21 -16 -11 -1 -16 3 -27 7
-24 5 3 6 -2 3 -10 -3 -9 -9 -14 -13 -11 -10 5 -41 -31 -34 -39 4 -3 1 -6 -5
-6 -17 0 -15 21 4 34 11 9 13 17 5 36 -8 22 -10 22 -11 5 -1 -19 -2 -19 -9 -2
-4 10 -10 18 -14 18 -19 -2 -20 2 0 7 18 6 20 10 9 24 -11 15 -14 14 -31 -14z"/>
<path d="M2270 175 c0 -3 8 -18 17 -33 l17 -27 -31 28 c-28 26 -31 27 -44 10
-13 -16 -12 -17 3 -5 21 16 32 1 22 -31 -12 -36 -12 -59 0 -47 14 14 23 13 23
-5 0 -8 -9 -15 -19 -15 -11 0 -18 -5 -15 -12 2 -7 11 -13 21 -13 9 0 20 -5 24
-11 10 -15 66 -11 88 6 18 14 18 14 5 -3 -12 -15 -10 -17 19 -17 29 0 31 2 19
18 -33 44 -63 71 -72 65 -6 -3 -7 -1 -4 4 4 6 -1 17 -10 24 -14 12 -16 12 -8
0 5 -9 4 -12 -3 -7 -6 4 -9 12 -6 19 2 7 -7 23 -21 35 -14 12 -25 19 -25 17z"/>
</g>
</svg>
